<svg width="279" height="467" viewBox="0 0 279 467" fill="none" xmlns="http://www.w3.org/2000/svg">
<path d="M178.09 347.663V229.638H296.115V230.2C296.115 295.028 243.479 347.663 178.652 347.663H178.09Z" fill="#D9000F"/>
<path d="M178.123 466.548V348.523H296.148V349.085C296.148 413.913 243.512 466.581 178.652 466.581H178.09L178.123 466.548Z" fill="black"/>
<path d="M407.73 229.607L178.124 229.607L178.124 6.10352e-05H179.181C305.301 6.10352e-05 407.73 102.396 407.73 228.549V229.64V229.607Z" fill="black"/>
<path d="M178.091 348.258V229.837H59.6699C59.6699 295.226 112.702 348.258 178.091 348.258Z" fill="white"/>
<path d="M178.091 51.6767C79.8255 51.6767 0.162109 131.34 0.162109 229.606H178.091V51.6767Z" fill="#D9000F"/>
</svg>
