<svg width="56" height="48" viewBox="0 0 56 48" fill="none" xmlns="http://www.w3.org/2000/svg">
<path d="M51.6923 0H4.30769C3.16522 0 2.06954 0.459739 1.26169 1.27808C0.453845 2.09642 0 3.20633 0 4.36364V34.9091C0 36.0664 0.453845 37.1763 1.26169 37.9946C2.06954 38.813 3.16522 39.2727 4.30769 39.2727H51.6923C52.8348 39.2727 53.9305 38.813 54.7383 37.9946C55.5462 37.1763 56 36.0664 56 34.9091V4.36364C56 3.20633 55.5462 2.09642 54.7383 1.27808C53.9305 0.459739 52.8348 0 51.6923 0ZM51.6923 34.9091H4.30769V4.36364H51.6923V34.9091ZM56 45.8182C56 46.3968 55.7731 46.9518 55.3692 47.361C54.9652 47.7701 54.4174 48 53.8462 48H2.15385C1.58261 48 1.03477 47.7701 0.630847 47.361C0.226922 46.9518 0 46.3968 0 45.8182C0 45.2395 0.226922 44.6846 0.630847 44.2754C1.03477 43.8662 1.58261 43.6364 2.15385 43.6364H53.8462C54.4174 43.6364 54.9652 43.8662 55.3692 44.2754C55.7731 44.6846 56 45.2395 56 45.8182Z" fill="#D9000F"/>
</svg>
