<svg width="54" height="52" viewBox="0 0 54 52" fill="none" xmlns="http://www.w3.org/2000/svg">
<path d="M52 25.7486H18.6081M6.82162 25.7486H2M6.82162 25.7486C6.82162 24.186 7.44237 22.6874 8.54732 21.5825C9.65226 20.4775 11.1509 19.8568 12.7135 19.8568C14.2761 19.8568 15.7748 20.4775 16.8797 21.5825C17.9847 22.6874 18.6054 24.186 18.6054 25.7486C18.6054 27.3113 17.9847 28.8099 16.8797 29.9148C15.7748 31.0198 14.2761 31.6405 12.7135 31.6405C11.1509 31.6405 9.65226 31.0198 8.54732 29.9148C7.44237 28.8099 6.82162 27.3113 6.82162 25.7486ZM52 43.6054H36.4649M36.4649 43.6054C36.4649 45.1684 35.8426 46.6687 34.7374 47.7739C33.6322 48.8791 32.1333 49.5 30.5703 49.5C29.0076 49.5 27.509 48.8765 26.4041 47.7716C25.2991 46.6667 24.6784 45.168 24.6784 43.6054M36.4649 43.6054C36.4649 42.0424 35.8426 40.5448 34.7374 39.4396C33.6322 38.3344 32.1333 37.7135 30.5703 37.7135C29.0076 37.7135 27.509 38.3343 26.4041 39.4392C25.2991 40.5442 24.6784 42.0428 24.6784 43.6054M24.6784 43.6054H2M52 7.89189H43.6081M31.8216 7.89189H2M31.8216 7.89189C31.8216 6.32927 32.4424 4.83064 33.5473 3.72569C34.6523 2.62075 36.1509 2 37.7135 2C38.4872 2 39.2534 2.1524 39.9682 2.44849C40.6831 2.74459 41.3326 3.17858 41.8797 3.72569C42.4268 4.27281 42.8608 4.92233 43.1569 5.63716C43.453 6.352 43.6054 7.11816 43.6054 7.89189C43.6054 8.66563 43.453 9.43178 43.1569 10.1466C42.8608 10.8615 42.4268 11.511 41.8797 12.0581C41.3326 12.6052 40.6831 13.0392 39.9682 13.3353C39.2534 13.6314 38.4872 13.7838 37.7135 13.7838C36.1509 13.7838 34.6523 13.163 33.5473 12.0581C32.4424 10.9531 31.8216 9.45452 31.8216 7.89189Z" stroke="#D9000F" stroke-width="4" stroke-miterlimit="10" stroke-linecap="round"/>
</svg>
