<svg width="42" height="51" viewBox="0 0 42 51" fill="none" xmlns="http://www.w3.org/2000/svg">
<path d="M7.26316 38.3182C5.86728 38.3182 4.52858 38.8809 3.54154 39.8825C2.55451 40.8841 2 42.2426 2 43.6591M2 43.6591C2 45.0756 2.55451 46.4341 3.54154 47.4357C4.52858 48.4373 5.86728 49 7.26316 49H42M2 43.6591V7.34091C2 5.92441 2.55451 4.56593 3.54154 3.56432C4.52858 2.5627 5.86728 2 7.26316 2H39.8947V38.3331H7.24632M38.8421 38.3182C37.4462 38.3182 36.1075 38.8809 35.1205 39.8825C34.1335 40.8841 33.5789 42.2426 33.5789 43.6591C33.5789 45.0756 34.1335 46.4341 35.1205 47.4357C36.1075 48.4373 37.4462 49 38.8421 49" stroke="#D9000F" stroke-width="4"/>
</svg>
