<svg width="53" height="52" viewBox="0 0 53 52" fill="none" xmlns="http://www.w3.org/2000/svg">
<path d="M0 0V49.1111C0 49.8773 0.298511 50.6121 0.829864 51.1539C1.36122 51.6956 2.08189 52 2.83333 52H51V46.2222H5.66667V0H0Z" fill="#D9000F"/>
<path d="M34.7557 33.2952C35.0196 33.5603 35.3331 33.7707 35.6781 33.9142C36.0232 34.0577 36.3931 34.1315 36.7667 34.1315C37.1403 34.1315 37.5102 34.0577 37.8552 33.9142C38.2003 33.7707 38.5138 33.5603 38.7777 33.2952L53 19.0333L48.9779 15L36.7667 27.2453L30.2443 20.7048C29.9804 20.4397 29.6669 20.2293 29.3219 20.0858C28.9768 19.9423 28.6069 19.8685 28.2333 19.8685C27.8597 19.8685 27.4898 19.9423 27.1448 20.0858C26.7997 20.2293 26.4862 20.4397 26.2223 20.7048L12 34.9667L16.0221 39L28.2333 26.7547L34.7557 33.2952Z" fill="#D9000F"/>
</svg>
