<svg width="222" height="45" viewBox="0 0 222 45" fill="none" xmlns="http://www.w3.org/2000/svg">
<path d="M127.805 43.3288C124.61 38.7528 121.466 34.2523 118.317 29.7444C118.375 29.6763 118.385 29.6542 118.401 29.6469C118.556 29.5677 118.71 29.4904 118.867 29.4149C121.022 28.3805 122.905 26.9999 124.323 25.0543C126.828 21.6122 127.469 17.743 126.857 13.6125C126.127 8.66837 123.439 5.14342 118.996 2.91802C115.839 1.33685 112.441 0.771757 108.96 0.740465C102.84 0.683403 96.7196 0.723899 90.5992 0.723899C90.4281 0.723899 90.2587 0.742306 90.0654 0.751509V43.3214H99.95V31.5225H100.651C103.225 31.5225 105.798 31.5409 108.369 31.5078C108.888 31.5004 109.168 31.6808 109.448 32.0876C111.92 35.688 114.416 39.2737 116.894 42.8723C117.133 43.2202 117.372 43.3932 117.829 43.3895C120.967 43.3656 124.106 43.3767 127.244 43.3748C127.406 43.3748 127.566 43.3472 127.807 43.327L127.805 43.3288ZM116.656 18.9708C115.787 21.3655 113.965 22.6743 111.585 23.2338C110.444 23.5026 109.244 23.6057 108.067 23.6333C105.516 23.6922 102.961 23.6535 100.408 23.6517C100.276 23.6517 100.141 23.6333 99.9482 23.6186V8.75672C100.136 8.75672 100.32 8.75672 100.504 8.75672C103.155 8.75672 105.805 8.71991 108.456 8.76961C110.492 8.80826 112.478 9.14327 114.225 10.3066C116.064 11.5325 116.903 13.3143 117.037 15.4642C117.111 16.6497 117.067 17.8332 116.654 18.9689L116.656 18.9708Z" fill="#2B2A28"/>
<path d="M163.125 29.6867C165.571 28.5768 167.607 27.1613 169.14 25.1034C171.721 21.641 172.262 17.713 171.713 13.5622C171.393 11.1417 170.493 8.93649 168.974 7.00743C166.48 3.83959 163.073 2.20504 159.246 1.33071C157.253 0.874213 155.212 0.767453 153.168 0.765612C147.32 0.76009 141.474 0.763771 135.626 0.765612C135.417 0.765612 135.207 0.782178 134.995 0.791382V43.3061H144.736V31.533C144.946 31.5072 145.095 31.4722 145.246 31.4722C147.974 31.4685 150.704 31.4575 153.432 31.4869C153.684 31.4906 154.022 31.6986 154.173 31.914C156.736 35.5696 159.28 39.24 161.807 42.9195C162.022 43.2343 162.239 43.3484 162.606 43.3466C165.762 43.3355 168.921 43.3411 172.078 43.3392C172.238 43.3392 172.398 43.3116 172.617 43.2914C171.001 40.9629 169.444 38.7062 167.874 36.4568C166.302 34.2057 164.719 31.96 163.125 29.6904V29.6867ZM161.15 19.8316C160.316 21.4698 158.926 22.4583 157.223 23.0344C155.55 23.5995 153.811 23.721 152.058 23.721C149.816 23.721 147.574 23.7137 145.332 23.7265C144.942 23.7284 144.725 23.6768 144.725 23.1964C144.74 18.4861 144.734 13.7739 144.736 9.0635C144.736 8.98803 144.753 8.91256 144.773 8.74874C145.535 8.74874 146.253 8.74874 146.971 8.74874C149.213 8.74874 151.457 8.69168 153.695 8.77083C155.74 8.84262 157.735 9.24021 159.416 10.5287C160.907 11.6718 161.669 13.2124 161.873 15.0826C162.053 16.7448 161.912 18.3351 161.15 19.8353V19.8316Z" fill="#E31E25"/>
<path d="M207.861 34.2134C207.962 34.403 208.058 34.5503 208.124 34.7086C209.233 37.3849 210.352 40.0595 211.43 42.7469C211.613 43.1997 211.828 43.3543 212.314 43.3507C215.101 43.3267 217.889 43.3396 220.676 43.3396H221.99C221.829 42.9586 221.722 42.6917 221.606 42.4303C218.966 36.5217 216.328 30.6112 213.683 24.7043C211.521 19.8725 209.345 15.0462 207.178 10.2162C205.842 7.23791 204.511 4.25597 203.182 1.27404C203.028 0.926143 202.827 0.747595 202.394 0.751276C199.49 0.773365 196.585 0.769684 193.68 0.754958C193.305 0.753117 193.123 0.898533 192.981 1.22066C191.939 3.59332 190.89 5.96231 189.833 8.32761C187.131 14.3817 184.425 20.4321 181.721 26.4861C179.853 30.6682 177.987 34.8521 176.12 39.0342C175.493 40.4387 174.869 41.845 174.233 43.2678C174.338 43.2991 174.392 43.3286 174.443 43.3286C177.602 43.3322 180.759 43.3415 183.917 43.3175C184.098 43.3175 184.365 43.0966 184.44 42.9163C185.57 40.2288 186.682 37.534 187.776 34.8319C187.958 34.3809 188.18 34.195 188.698 34.1968C194.897 34.2171 201.095 34.2097 207.294 34.2097H207.859L207.861 34.2134ZM191.218 26.7494C193.478 21.299 195.711 15.9168 198.013 10.3634C200.314 15.9131 202.549 21.299 204.808 26.7494H191.218Z" fill="#E31E25"/>
<path d="M82.5427 19.8559C81.6352 19.9608 80.8658 20.0437 80.0964 20.1412C77.7679 20.4394 75.4412 20.7542 73.1109 21.0321C72.7207 21.0781 72.5937 21.1794 72.5789 21.5862C72.5421 22.6317 72.5163 23.6882 72.3488 24.7172C71.7525 28.3673 70.024 31.3566 66.9188 33.4477C63.8614 35.5074 60.4726 36.1093 56.8556 35.5368C53.2019 34.957 50.2438 33.2194 48.1767 30.1344C45.8869 26.7144 45.3623 22.9262 46.1409 18.9429C47.6411 11.2617 54.5916 7.44036 61.5789 8.61105C62.9171 8.83562 64.2111 9.31788 65.5787 9.69523C66.9169 7.26734 68.3085 4.74189 69.7111 2.19804C69.4958 2.09128 69.3448 2.00477 69.1865 1.93666C66.8985 0.98318 64.5111 0.401518 62.0538 0.151183C58.8362 -0.176463 55.6426 0.0168112 52.5097 0.845127C46.6011 2.40788 41.8944 5.64568 38.7763 10.9635C36.0244 15.6573 35.3157 20.7339 36.1974 26.0609C36.8675 30.1049 38.5738 33.6704 41.3367 36.6891C45.4672 41.2025 50.7243 43.4371 56.7378 44.0243C59.602 44.3041 62.4495 44.1053 65.2548 43.4482C70.9057 42.1247 75.5406 39.2385 78.8557 34.4251C81.5027 30.5817 82.6494 26.2763 82.5482 21.6248C82.5353 21.0505 82.5482 20.4762 82.5482 19.8541L82.5427 19.8559Z" fill="#2B2A28"/>
<path d="M9.78518 42.5533C9.78518 37.9405 9.78518 33.3277 9.78518 28.7149C9.78518 28.1185 10.0748 27.8203 10.654 27.8203C16.6952 27.8203 22.7364 27.8203 28.7775 27.8203H29.5249V19.9697H28.7223C22.6425 19.9697 16.5608 19.966 10.481 19.9789C9.97477 19.9789 9.76677 19.8868 9.77045 19.3144C9.79806 15.9477 9.78333 12.5811 9.78518 9.21261C9.78518 9.04326 9.80726 8.87208 9.82567 8.62358H32.17V0.765625H0V43.3613H9.78518V42.5551V42.5533Z" fill="#2B2A28"/>
<path d="M84.7444 18.1813C83.4449 10.1853 79.1836 4.48651 72.0049 0.795898C68.248 7.60834 64.5206 14.3674 60.7324 21.2351C68.7873 20.2098 76.7318 19.1992 84.7444 18.1813Z" fill="#E31E25"/>
</svg>
