<svg width="169" height="1089" viewBox="0 0 169 1089" fill="none" xmlns="http://www.w3.org/2000/svg">
<path d="M166 1088.43L0.477983 1088.43L0.477982 1056.74L117.289 986.277L117.289 1003.07L0.477976 933.783L0.477975 902.097L166 901.861L166 937.803L55.5732 938.039L55.5732 931.182L148.502 986.75L148.502 1003.78L55.5732 1060.53L55.5732 1052.49L166 1052.49L166 1088.43ZM166 860.743L0.477973 860.743L0.477972 822.673L108.304 822.673L0.477968 743.695L0.477966 707.753L166 707.753L166 745.587L58.4107 745.587L166 824.564L166 860.743ZM168.837 588.273C168.837 601.041 166.788 612.943 162.69 623.978C158.433 634.855 152.443 644.314 144.719 652.353C136.994 660.393 127.93 666.698 117.526 671.27C107.121 675.684 95.6925 677.891 83.239 677.891C70.7854 677.891 59.3565 675.684 48.9523 671.27C38.548 666.698 29.4837 660.393 21.7594 652.353C14.035 644.156 8.1235 634.619 4.02486 623.742C-0.231413 612.864 -2.35955 600.963 -2.35955 588.036C-2.35955 573.691 0.162689 560.764 5.20717 549.257C10.094 537.591 17.3454 527.818 26.9615 519.936L49.6616 544.527C43.1984 550.202 38.3904 556.508 35.2376 563.444C31.9271 570.38 30.2719 577.947 30.2719 586.144C30.2719 593.869 31.5331 600.963 34.0553 607.426C36.5775 613.889 40.2032 619.485 44.9324 624.214C49.6617 628.944 55.2579 632.648 61.7211 635.328C68.1844 637.85 75.357 639.111 83.239 639.111C91.121 639.111 98.2936 637.85 104.757 635.328C111.22 632.648 116.816 628.944 121.545 624.214C126.275 619.485 129.9 613.889 132.423 607.426C134.945 600.963 136.206 593.869 136.206 586.144C136.206 577.947 134.63 570.38 131.477 563.444C128.166 556.508 123.201 550.202 116.58 544.527L139.28 519.936C148.896 527.818 156.226 537.591 161.271 549.257C166.315 560.764 168.837 573.77 168.837 588.273ZM168.837 420.164C168.837 432.933 166.788 444.835 162.69 455.87C158.433 466.747 152.443 476.205 144.719 484.245C136.994 492.285 127.93 498.59 117.526 503.162C107.121 507.576 95.6925 509.783 83.239 509.783C70.7854 509.783 59.3565 507.576 48.9523 503.162C38.548 498.59 29.4837 492.285 21.7594 484.245C14.035 476.048 8.1235 466.51 4.02485 455.633C-0.231421 444.756 -2.35956 432.854 -2.35956 419.928C-2.35956 405.583 0.162681 392.656 5.20716 381.148C10.094 369.483 17.3454 359.709 26.9615 351.827L49.6616 376.419C43.1984 382.094 38.3904 388.4 35.2376 395.336C31.9271 402.272 30.2719 409.839 30.2719 418.036C30.2719 425.761 31.533 432.854 34.0553 439.318C36.5775 445.781 40.2032 451.377 44.9324 456.106C49.6616 460.835 55.2579 464.54 61.7211 467.22C68.1843 469.742 75.357 471.003 83.239 471.003C91.121 471.003 98.2936 469.742 104.757 467.22C111.22 464.54 116.816 460.835 121.545 456.106C126.275 451.377 129.9 445.781 132.423 439.318C134.945 432.854 136.206 425.761 136.206 418.036C136.206 409.839 134.63 402.272 131.477 395.336C128.166 388.4 123.201 382.094 116.58 376.419L139.28 351.827C148.896 359.709 156.226 369.483 161.271 381.148C166.315 392.656 168.837 405.661 168.837 420.164ZM166 326.86L0.47795 326.86L0.477948 288.79L108.304 288.79L0.477945 209.813L0.477943 173.871L166 173.871L166 211.704L58.4107 211.704L166 290.682L166 326.86ZM166 38.311L113.742 38.311L122.018 28.8526L122.018 74.2529C122.018 88.5981 119.654 100.973 114.925 111.377C110.195 121.781 103.338 129.742 94.3526 135.26C85.3671 140.777 74.6476 143.536 62.194 143.536C49.2675 143.536 38.2327 140.619 29.0896 134.787C19.7888 128.796 12.695 120.441 7.8082 109.722C2.92136 99.0024 0.477939 86.3912 0.477939 71.8883L0.477936 0.477358L166 0.477351L166 38.311ZM166 143.063L106.648 101.919L106.648 63.1393L166 102.628L166 143.063ZM101.446 38.311L21.7593 38.311L31.6907 28.8526L31.6907 70.9424C31.6907 81.8196 34.2129 90.1745 39.2574 96.0072C44.3019 101.682 51.7898 104.52 61.7211 104.52C71.3371 104.52 78.7462 101.761 83.9483 96.2437C89.1505 90.7263 91.7515 82.6078 91.7515 71.8883L91.7515 28.8526L101.446 38.311Z" fill="#D9D9D9"/>
</svg>
