<svg width="30" height="28" viewBox="0 0 30 28" fill="none" xmlns="http://www.w3.org/2000/svg">
<path d="M14.1239 0.500621C14.5086 -0.166874 15.4914 -0.166874 15.8761 0.500622L20.0942 7.81961C20.2378 8.06862 20.4849 8.24426 20.7715 8.3008L29.1923 9.96249C29.9603 10.114 30.264 11.0282 29.7338 11.5923L23.9199 17.7774C23.7221 17.9878 23.6276 18.272 23.6612 18.5559L24.6475 26.9019C24.7374 27.6631 23.9423 28.2281 23.2299 27.9092L15.4185 24.4128C15.1528 24.2938 14.8472 24.2938 14.5815 24.4128L6.77013 27.9092C6.05773 28.2281 5.26258 27.6631 5.35253 26.9019L6.33881 18.5559C6.37236 18.272 6.27795 17.9878 6.08013 17.7774L0.266191 11.5923C-0.264044 11.0282 0.0396746 10.114 0.807664 9.96249L9.22855 8.3008C9.51506 8.24426 9.76224 8.06862 9.90576 7.81961L14.1239 0.500621Z" fill="#D9000F"/>
</svg>
