<svg width="136" height="679" viewBox="0 0 136 679" fill="none" xmlns="http://www.w3.org/2000/svg">
<path d="M133.439 288.082C119.443 297.856 105.677 307.473 91.8888 317.106C91.6805 316.926 91.613 316.897 91.5905 316.847C91.3484 316.374 91.1119 315.901 90.881 315.422C87.7169 308.829 83.4943 303.07 77.5432 298.735C67.0149 291.072 55.1804 289.113 42.5463 290.982C27.4238 293.217 16.6421 301.437 9.83523 315.028C4.99894 324.684 3.27049 335.077 3.17478 345.724C3.00025 364.444 3.12411 383.164 3.12411 401.884C3.12411 402.408 3.18041 402.926 3.20856 403.517L133.417 403.517L133.417 373.283L97.3276 373.283L97.3276 371.138C97.3276 363.267 97.3838 355.396 97.2825 347.531C97.26 345.943 97.8117 345.088 99.056 344.232C110.069 336.67 121.036 329.036 132.043 321.458C133.107 320.726 133.636 319.994 133.625 318.598C133.552 308.998 133.586 299.399 133.58 289.8C133.58 289.304 133.496 288.814 133.434 288.077L133.439 288.082ZM58.9357 322.184C66.2605 324.842 70.2635 330.415 71.9751 337.695C72.7971 341.186 73.1123 344.857 73.1968 348.454C73.377 356.258 73.2587 364.072 73.2531 371.881C73.2531 372.287 73.1968 372.698 73.1518 373.289L27.694 373.289C27.694 372.715 27.694 372.152 27.694 371.589C27.694 363.481 27.5814 355.374 27.7334 347.266C27.8517 341.039 28.8764 334.965 32.4346 329.622C36.1843 323.997 41.6342 321.43 48.2102 321.019C51.8361 320.793 55.4562 320.929 58.93 322.19L58.9357 322.184Z" fill="black"/>
<path d="M91.7146 180.052C88.3196 172.569 83.99 166.342 77.6955 161.652C67.1052 153.759 55.0905 152.104 42.3946 153.781C34.9909 154.761 28.246 157.514 22.3456 162.159C12.6562 169.788 7.65662 180.209 4.9823 191.914C3.58603 198.012 3.25948 204.256 3.25385 210.505C3.23696 228.392 3.24822 246.273 3.25385 264.16C3.25385 264.802 3.30453 265.444 3.33268 266.091L133.372 266.091L133.372 236.297L97.3616 236.297C97.2828 235.655 97.1758 235.199 97.1758 234.737C97.1645 226.393 97.1308 218.044 97.2208 209.7C97.2321 208.929 97.8683 207.893 98.527 207.431C109.708 199.594 120.935 191.813 132.19 184.083C133.152 183.424 133.501 182.76 133.496 181.639C133.462 171.984 133.479 162.322 133.473 152.667C133.473 152.177 133.389 151.687 133.327 151.017C126.205 155.96 119.302 160.723 112.422 165.526C105.537 170.334 98.6678 175.176 91.7258 180.052L91.7146 180.052ZM61.5708 186.093C66.5816 188.643 69.605 192.894 71.3672 198.102C73.0957 203.22 73.4673 208.54 73.4673 213.9C73.4673 220.757 73.4448 227.615 73.4842 234.472C73.4898 235.666 73.3322 236.33 71.8627 236.33C57.4552 236.285 43.042 236.302 28.6345 236.297C28.4037 236.297 28.1728 236.246 27.6718 236.184C27.6718 233.853 27.6718 231.657 27.6718 229.462C27.6718 222.604 27.4972 215.741 27.7393 208.895C27.9589 202.64 29.175 196.537 33.1161 191.396C36.6124 186.836 41.3248 184.505 47.0451 183.88C52.1291 183.328 56.9935 183.762 61.5821 186.093L61.5708 186.093Z" fill="black"/>
<path d="M105.559 43.2167C106.139 42.9071 106.589 42.6143 107.073 42.4116C115.259 39.0223 123.44 35.5992 131.66 32.2999C133.045 31.7425 133.518 31.0838 133.507 29.5975C133.433 21.0735 133.473 12.5438 133.473 4.01972L133.473 -0.0001888C132.307 0.495264 131.491 0.821787 130.692 1.17648C112.619 9.2501 94.5405 17.3181 76.4734 25.4086C61.6943 32.024 46.9321 38.6788 32.1586 45.3055C23.049 49.393 13.9282 53.4636 4.80738 57.5286C3.74328 58.0015 3.19716 58.6152 3.20842 59.9382C3.27598 68.8226 3.26472 77.707 3.21968 86.5914C3.21405 87.7399 3.65883 88.2972 4.6441 88.7308C11.9014 91.9174 19.1473 95.1266 26.3821 98.3583C44.8996 106.623 63.4058 114.9 81.9234 123.17C94.715 128.885 107.512 134.594 120.304 140.303C124.6 142.223 128.901 144.131 133.253 146.074C133.349 145.753 133.439 145.59 133.439 145.432C133.45 135.771 133.479 126.115 133.405 116.454C133.405 115.902 132.73 115.085 132.178 114.855C123.958 111.398 115.715 107.997 107.45 104.653C106.071 104.095 105.502 103.414 105.508 101.832C105.57 82.8698 105.547 63.9131 105.547 44.9508L105.547 43.2224L105.559 43.2167ZM82.7285 94.1245C66.0576 87.2107 49.5951 80.3813 32.609 73.338C49.5839 66.3003 66.0576 59.4653 82.7285 52.5571L82.7285 94.1245Z" fill="black"/>
<path d="M61.6445 426.526C61.9654 429.302 62.2188 431.655 62.5172 434.009C63.4293 441.131 64.392 448.248 65.2422 455.375C65.3829 456.569 65.6926 456.957 66.9369 457.002C70.1348 457.115 73.3665 457.194 76.5137 457.706C87.6783 459.53 96.8216 464.817 103.217 474.315C109.518 483.667 111.359 494.032 109.608 505.095C107.834 516.271 102.519 525.318 93.0832 531.641C82.6224 538.645 71.0356 540.25 58.852 537.868C35.3574 533.279 23.6693 512.02 27.25 490.648C27.9369 486.555 29.412 482.597 30.5662 478.414C23.14 474.321 15.4155 470.064 7.63463 465.774C7.30808 466.433 7.04346 466.895 6.83515 467.379C3.91874 474.377 2.13961 481.679 1.37392 489.195C0.371752 499.037 0.962917 508.805 3.49648 518.388C8.27647 536.46 18.1799 550.857 34.4453 560.394C48.8022 568.811 64.3301 570.979 80.6237 568.282C92.9931 566.233 103.899 561.014 113.132 552.563C126.937 539.929 133.772 523.849 135.568 505.455C136.424 496.695 135.816 487.985 133.806 479.405C129.758 462.12 120.93 447.943 106.207 437.804C94.4513 429.707 81.2824 426.2 67.0551 426.51C65.2985 426.549 63.5419 426.51 61.6389 426.51L61.6445 426.526Z" fill="black"/>
<path d="M131.071 649.07C116.962 649.07 102.853 649.07 88.7439 649.07C86.9197 649.07 86.0077 648.184 86.0077 646.413C86.0077 627.935 86.0077 609.457 86.0077 590.978L86.0077 588.693L61.9951 588.693L61.9951 591.147C61.9951 609.744 61.9839 628.346 62.0233 646.942C62.0233 648.49 61.7418 649.126 59.9908 649.115C49.6933 649.031 39.3958 649.076 29.0926 649.07C28.5746 649.07 28.051 649.003 27.291 648.946L27.291 580.602L3.25592 580.602L3.25592 679L133.543 679L133.543 649.07L131.077 649.07L131.071 649.07Z" fill="black"/>
<path d="M56.5214 419.793C32.064 423.768 14.6331 436.801 3.34473 458.759C24.1819 470.25 44.8557 481.651 65.8618 493.238C62.7258 468.6 59.6348 444.301 56.5214 419.793Z" fill="#D9000F"/>
</svg>
