<svg width="212" height="212" viewBox="0 0 212 212" fill="none" xmlns="http://www.w3.org/2000/svg">
<path d="M172.62 67.4825C182.826 85.1603 185.592 106.168 180.308 125.885C175.025 145.602 162.126 162.413 144.448 172.619C126.77 182.826 105.762 185.591 86.0453 180.308C66.3283 175.025 49.5176 162.126 39.3114 144.448L105.965 105.965L172.62 67.4825Z" fill="#D9000F"/>
<path d="M39.3116 144.448C29.1053 126.77 26.3396 105.762 31.6227 86.0453C36.9059 66.3283 49.8052 49.5176 67.4829 39.3113C85.1607 29.105 106.169 26.3393 125.886 31.6224C145.603 36.9056 162.414 49.8049 172.62 67.4826L105.966 105.965L39.3116 144.448Z" fill="black"/>
<path d="M86.7241 72.293L139.638 105.965L86.7241 139.638V72.293Z" fill="white"/>
</svg>
