<svg width="57" height="55" viewBox="0 0 57 55" fill="none" xmlns="http://www.w3.org/2000/svg">
<path fill-rule="evenodd" clip-rule="evenodd" d="M4.50227 26.639C4.50227 39.5821 14.0383 48.4009 24.7495 50.225C25.0409 50.2747 25.3195 50.3804 25.5693 50.536C25.8192 50.6916 26.0355 50.8942 26.2058 51.1321C26.3761 51.37 26.4971 51.6385 26.562 51.9225C26.6268 52.2064 26.6342 52.5001 26.5837 52.7868C26.5332 53.0736 26.4258 53.3477 26.2677 53.5936C26.1095 53.8395 25.9037 54.0523 25.662 54.2199C25.4202 54.3875 25.1473 54.5066 24.8588 54.5704C24.5703 54.6342 24.2718 54.6415 23.9804 54.5918C11.4026 52.4488 0 42.0143 0 26.639C0 20.1036 3.02024 14.9671 6.54601 11.0638C9.07368 8.26595 11.9643 5.99111 14.2889 4.25203H7.22006C6.64708 4.25203 6.09758 4.02804 5.69242 3.62933C5.28727 3.23063 5.05966 2.68987 5.05966 2.12601C5.05966 1.56216 5.28727 1.0214 5.69242 0.622696C6.09758 0.223991 6.64708 0 7.22006 0H20.1825C20.7554 0 21.3049 0.223991 21.7101 0.622696C22.1152 1.0214 22.3429 1.56216 22.3429 2.12601V14.8821C22.3429 15.446 22.1152 15.9867 21.7101 16.3854C21.3049 16.7841 20.7554 17.0081 20.1825 17.0081C19.6095 17.0081 19.06 16.7841 18.6548 16.3854C18.2497 15.9867 18.0221 15.446 18.0221 14.8821V7.03286L18.0177 7.04136C15.5462 8.86973 12.5303 11.1106 9.91624 14.0062C6.82686 17.4248 4.50227 21.562 4.50227 26.639ZM52.4977 28.361C52.4977 15.5539 43.1648 6.79049 32.5918 4.83456C32.2971 4.78535 32.0153 4.67889 31.7629 4.52138C31.5105 4.36387 31.2924 4.15847 31.1215 3.91716C30.9506 3.67585 30.8303 3.40346 30.7675 3.11589C30.7047 2.82831 30.7007 2.53131 30.7558 2.24221C30.8109 1.95311 30.9239 1.6777 31.0883 1.43204C31.2527 1.18639 31.4652 0.975412 31.7133 0.81142C31.9614 0.647427 32.2402 0.533704 32.5335 0.476885C32.8268 0.420065 33.1286 0.421287 33.4214 0.480479C45.8394 2.77658 57 13.1515 57 28.361C57 34.8964 53.9798 40.0286 50.454 43.9362C47.9263 46.7341 45.0357 49.0089 42.7111 50.748H49.7799C50.3529 50.748 50.9024 50.972 51.3076 51.3707C51.7127 51.7694 51.9403 52.3101 51.9403 52.874C51.9403 53.4378 51.7127 53.9786 51.3076 54.3773C50.9024 54.776 50.3529 55 49.7799 55H36.8175C36.2446 55 35.6951 54.776 35.2899 54.3773C34.8848 53.9786 34.6571 53.4378 34.6571 52.874V40.1179C34.6571 39.554 34.8848 39.0133 35.2899 38.6146C35.6951 38.2159 36.2446 37.9919 36.8175 37.9919C37.3905 37.9919 37.94 38.2159 38.3452 38.6146C38.7503 39.0133 38.9779 39.554 38.9779 40.1179V47.9629H38.9866C41.4538 46.126 44.474 43.8895 47.0838 40.9896C50.1731 37.5752 52.4977 33.4422 52.4977 28.361Z" fill="black"/>
</svg>
