<svg width="83" height="78" viewBox="0 0 83 78" fill="none" xmlns="http://www.w3.org/2000/svg">
<path d="M15.5 8.75H31.5L38.5 22.77H48.04L59.25 37.75H70.25V68.4" stroke="white" stroke-width="4" stroke-linecap="round" stroke-linejoin="round"/>
<path d="M59.8203 58.6599L70.2503 69.0899L80.6803 58.6599" stroke="white" stroke-width="4" stroke-linecap="round" stroke-linejoin="round"/>
<path d="M8.75 15.5C12.4779 15.5 15.5 12.4779 15.5 8.75C15.5 5.02208 12.4779 2 8.75 2C5.02208 2 2 5.02208 2 8.75C2 12.4779 5.02208 15.5 8.75 15.5Z" stroke="white" stroke-width="4" stroke-linecap="round" stroke-linejoin="round"/>
<path d="M25.0888 27.9094L22.6072 27.8987L19.3872 39.6386L20.9009 36.0332L26.5176 49.7957L23.2967 49.7797L24.7275 53.51L23.4544 56.0859L29.09 56.1163L32.2287 63.8174L40.9421 63.8671L25.0888 27.9094Z" fill="white"/>
<path d="M20.0704 55.78L12.5704 59L12.4404 48.04L10.7104 35.99L5.46039 38.24L4.90039 77.51L12.7204 74.16L12.6104 65.84L22.7304 61.5L22.8704 58.63L20.0704 55.78Z" fill="white"/>
</svg>
