<svg width="58" height="50" viewBox="0 0 58 50" fill="none" xmlns="http://www.w3.org/2000/svg">
<path d="M29 13.5C30.9286 5.93397 38.2125 2.07069 54.0714 2.00001C54.3249 1.99906 54.5762 2.04799 54.8106 2.14398C55.045 2.23996 55.258 2.3811 55.4373 2.55927C55.6165 2.73744 55.7586 2.94911 55.8551 3.18208C55.9517 3.41505 56.0009 3.66471 56 3.91668V38.4167C56 38.925 55.7968 39.4125 55.4351 39.772C55.0734 40.1314 54.5829 40.3333 54.0714 40.3333C38.6429 40.3333 32.6824 43.4252 29 48M29 13.5C27.0714 5.93397 19.7875 2.07069 3.92858 2.00001C3.67505 1.99906 3.42384 2.04799 3.18942 2.14398C2.95501 2.23996 2.74202 2.3811 2.56275 2.55927C2.38347 2.73744 2.24145 2.94911 2.14487 3.18208C2.04829 3.41505 1.99906 3.66471 2.00001 3.91668V38.1855C2.00001 39.369 2.73769 40.3333 3.92858 40.3333C19.3571 40.3333 25.3393 43.4479 29 48M29 13.5V48" stroke="black" stroke-width="4" stroke-linecap="round" stroke-linejoin="round"/>
</svg>
