<svg width="63" height="63" viewBox="0 0 63 63" fill="none" xmlns="http://www.w3.org/2000/svg">
<path d="M14.2 26.4C20.9379 26.4 26.4 20.9379 26.4 14.2C26.4 7.46213 20.9379 2 14.2 2C7.46213 2 2 7.46213 2 14.2C2 20.9379 7.46213 26.4 14.2 26.4Z" stroke="white" stroke-width="4" stroke-linecap="round" stroke-linejoin="round"/>
<path d="M35.6502 47.8499H26.2002C19.5702 47.8499 14.2002 42.4799 14.2002 35.8499V26.3999" stroke="white" stroke-width="4" stroke-linecap="round" stroke-linejoin="round"/>
<path d="M54.5704 35.6499H41.1204C38.0994 35.6499 35.6504 38.0989 35.6504 41.1199V54.5699C35.6504 57.5909 38.0994 60.0399 41.1204 60.0399H54.5704C57.5914 60.0399 60.0404 57.5909 60.0404 54.5699V41.1199C60.0404 38.0989 57.5914 35.6499 54.5704 35.6499Z" stroke="white" stroke-width="4" stroke-linecap="round" stroke-linejoin="round"/>
<path d="M47.8496 35.65V2" stroke="white" stroke-width="4" stroke-miterlimit="10"/>
<path d="M36.5195 13.3296L45.2695 4.57965C46.6895 3.15965 49.0095 3.15965 50.4295 4.57965L59.1795 13.3296" stroke="white" stroke-width="4" stroke-linecap="round" stroke-linejoin="round"/>
</svg>
