<svg width="56" height="48" viewBox="0 0 56 48" fill="none" xmlns="http://www.w3.org/2000/svg">
<path d="M37.8108 17.82L24.8877 9.09273C24.5632 8.87345 24.1861 8.74753 23.7965 8.72841C23.407 8.70929 23.0196 8.79769 22.6757 8.98417C22.3319 9.17065 22.0445 9.44821 21.8442 9.78723C21.6439 10.1262 21.5382 10.514 21.5385 10.9091V28.3636C21.5382 28.7587 21.6439 29.1465 21.8442 29.4855C22.0445 29.8245 22.3319 30.1021 22.6757 30.2886C23.0196 30.475 23.407 30.5634 23.7965 30.5443C24.1861 30.5252 24.5632 30.3993 24.8877 30.18L37.8108 21.4527C38.1062 21.2536 38.3485 20.9835 38.5161 20.6667C38.6836 20.3498 38.7713 19.9959 38.7713 19.6364C38.7713 19.2769 38.6836 18.923 38.5161 18.6061C38.3485 18.2892 38.1062 18.0192 37.8108 17.82ZM25.8462 24.2864V15L32.7331 19.6364L25.8462 24.2864ZM51.6923 0H4.30769C3.16522 0 2.06954 0.459739 1.26169 1.27808C0.453845 2.09642 0 3.20633 0 4.36364V34.9091C0 36.0664 0.453845 37.1763 1.26169 37.9946C2.06954 38.813 3.16522 39.2727 4.30769 39.2727H51.6923C52.8348 39.2727 53.9305 38.813 54.7383 37.9946C55.5462 37.1763 56 36.0664 56 34.9091V4.36364C56 3.20633 55.5462 2.09642 54.7383 1.27808C53.9305 0.459739 52.8348 0 51.6923 0ZM51.6923 34.9091H4.30769V4.36364H51.6923V34.9091ZM56 45.8182C56 46.3968 55.7731 46.9518 55.3692 47.361C54.9652 47.7701 54.4174 48 53.8462 48H2.15385C1.58261 48 1.03477 47.7701 0.630847 47.361C0.226922 46.9518 0 46.3968 0 45.8182C0 45.2395 0.226922 44.6846 0.630847 44.2754C1.03477 43.8662 1.58261 43.6364 2.15385 43.6364H53.8462C54.4174 43.6364 54.9652 43.8662 55.3692 44.2754C55.7731 44.6846 56 45.2395 56 45.8182Z" fill="black"/>
</svg>
