<svg width="59" height="64" viewBox="0 0 59 64" fill="none" xmlns="http://www.w3.org/2000/svg">
<path d="M12.7489 20.7956C11.42 16.8005 10.2901 11.1074 7.56478 8.95974C7.10614 8.58654 6.56832 8.32302 5.99236 8.18927C5.41639 8.05552 4.81749 8.05507 4.24132 8.18796C-1.00674 10.9012 4.43668 19.2292 5.71131 23.0084C6.79179 26.2161 8.17496 30.4428 9.20359 33.3984C10.7604 37.8723 18.0645 52.2225 18.0645 52.2225M18.0669 52.2333L37.8436 44.5964L41.4119 52.729C41.7966 53.6044 41.3082 54.6222 40.417 54.9647L23.8962 61.3101C23.6261 61.4138 23.3382 61.4632 23.0489 61.4555C22.7597 61.4478 22.4748 61.3831 22.2105 61.2652C21.9463 61.1472 21.7079 60.9783 21.5091 60.7681C21.3102 60.558 21.1547 60.3106 21.0515 60.0403L18.0669 52.2333Z" stroke="black" stroke-width="4" stroke-linecap="round" stroke-linejoin="round"/>
<path d="M7.56363 8.96574C7.28265 3.40414 12.509 1.34085 14.8629 4.70289C16.8478 7.70799 19.8927 17.9678 19.8927 17.9678M15.0884 4.70892C16.023 3.65015 16.5162 2.6179 17.8704 2.22116C20.1327 1.62786 21.505 2.05836 22.7435 5.63264C23.9819 9.20692 26.5095 17.6446 26.5095 17.6446M22.7459 5.63746C22.7459 5.63746 25.6485 2.29834 28.6318 4.9079C29.7099 6.93501 35.3065 28.7002 35.3065 28.7002C35.3065 28.7002 38.4623 41.3139 37.8437 44.594M8.3957 30.5151C8.3957 30.5151 10.9305 33.724 12.2497 33.5672C15.6238 33.1645 15.9603 28.8763 16.0483 26.4874C16.1363 24.0985 16.7598 21.5312 19.8939 21.7084C23.0268 21.8857 24.7054 22.4163 24.2641 26.7527C23.8227 31.0891 20.6428 43.0323 20.6428 43.0323L26.9894 48.5336M30.343 9.33957C30.343 9.33957 32.9116 5.0514 33.9872 4.5413C35.1425 3.99383 39.0074 4.68119 38.9459 7.72246C38.8844 10.7637 34.5817 17.7857 34.5817 17.7857" stroke="black" stroke-width="4" stroke-linecap="round" stroke-linejoin="round"/>
<path d="M38.9414 7.72374C38.9414 7.72374 40.9709 4.32311 42.8702 4.15308C45.364 3.79131 47.5045 5.93419 47.1427 8.4328C47.0495 8.95134 46.9092 9.45621 46.7219 9.94741C44.9729 13.9992 42.9445 17.9246 40.6514 21.6953M46.9847 9.7617C46.9847 9.7617 49.8222 8.26639 51.4586 9.61941C51.8527 9.86812 52.1905 10.1967 52.4503 10.584C52.7101 10.9712 52.8861 11.4087 52.9671 11.8682C53.048 12.3277 53.0322 12.7991 52.9205 13.2521C52.8087 13.705 52.6037 14.1296 52.3184 14.4985C51.1306 16.6305 46.1418 26.151 46.1418 26.151M52.0977 15.2727C52.1098 15.2292 57.2156 14.2356 56.6186 18.6395C56.2979 21.0079 39.929 49.1366 39.929 49.1366" stroke="black" stroke-width="4" stroke-linecap="round" stroke-linejoin="round"/>
</svg>
