<svg width="53" height="53" viewBox="0 0 53 53" fill="none" xmlns="http://www.w3.org/2000/svg">
<path d="M22.9263 1.47819C23.821 0.584686 25.018 0.0589359 26.2812 0.00466243C27.5445 -0.049611 28.7822 0.371534 29.7502 1.18501L30.0737 1.48071L34.8756 6.28024H41.6641C42.9389 6.28048 44.1665 6.7624 45.101 7.62946C46.0356 8.49652 46.608 9.68469 46.7036 10.9559L46.7187 11.335V18.1236L51.5207 22.9257C52.4149 23.8205 52.9411 25.018 52.9953 26.2819C53.0496 27.5457 52.628 28.784 51.8139 29.7522L51.5182 30.0732L46.7162 34.8752V41.6638C46.7166 42.9391 46.235 44.1674 45.3679 45.1025C44.5008 46.0375 43.3123 46.6103 42.0406 46.706L41.6641 46.7186H34.8781L30.0762 51.5207C29.1814 52.4149 27.9839 52.9411 26.7201 52.9953C25.4562 53.0496 24.218 52.628 23.2498 51.8138L22.9289 51.5207L18.1269 46.7186H11.3359C10.0607 46.719 8.83244 46.2374 7.89737 45.3702C6.9623 44.5031 6.38954 43.3146 6.2939 42.0429L6.28126 41.6638V34.8752L1.47931 30.0732C0.58512 29.1784 0.0589365 27.9808 0.00465889 26.7169C-0.0496187 25.4531 0.371956 24.2148 1.18614 23.2467L1.47931 22.9257L6.28126 18.1236V11.335C6.28149 10.0602 6.7634 8.83255 7.63045 7.89799C8.49749 6.96344 9.68563 6.39102 10.9568 6.29541L11.3359 6.28024H18.1244L22.9263 1.47819ZM26.5 5.05698L21.6981 9.85904C20.8585 10.6973 19.751 11.2135 18.5692 11.3173L18.1244 11.335H11.3359V18.1236C11.3362 19.3112 10.9184 20.461 10.1557 21.3713L9.85492 21.6999L5.05297 26.5019L9.85492 31.3015C10.694 32.1406 11.2112 33.2483 11.3157 34.4304L11.3359 34.8752V41.6638H18.1244C19.312 41.6635 20.4617 42.0814 21.372 42.8441L21.7006 43.1449L26.5 47.9469L31.302 43.1449C32.1411 42.3057 33.2487 41.7886 34.4308 41.684L34.8756 41.6638H41.6641V34.8752C41.6637 33.6876 42.0816 32.5378 42.8443 31.6275L43.1451 31.2989L47.947 26.4994L43.1451 21.6974C42.306 20.8582 41.7888 19.7506 41.6843 18.5684L41.6641 18.1236V11.335H34.8756C33.688 11.3353 32.5383 10.9175 31.628 10.1547L31.2994 9.85398L26.4975 5.05193L26.5 5.05698ZM34.2842 18.8768C34.739 18.4235 35.3493 18.1603 35.9911 18.1407C36.633 18.1211 37.2582 18.3466 37.7398 18.7713C38.2214 19.196 38.5233 19.788 38.5842 20.4273C38.6451 21.0665 38.4604 21.705 38.0676 22.213L37.8554 22.4505L25.5219 34.7842C25.0404 35.2664 24.3986 35.5549 23.7183 35.595C23.0381 35.635 22.3668 35.4239 21.832 35.0016L21.5894 34.7868L15.5136 28.7109C15.0556 28.2571 14.7882 27.6454 14.7663 27.001C14.7445 26.3566 14.9698 25.7281 15.396 25.2444C15.8223 24.7606 16.4174 24.458 17.0594 24.3986C17.7015 24.3392 18.3419 24.5275 18.8497 24.9249L19.0873 25.1346L23.5556 29.6031L34.2842 18.8768Z" fill="black"/>
</svg>
