<svg width="73" height="73" viewBox="0 0 73 73" fill="none" xmlns="http://www.w3.org/2000/svg">
<path d="M21.5795 41.8066L30.2333 50.4603L48.9622 40.6491C51.5938 39.2713 53.8517 37.2754 55.5421 34.8328C57.2326 32.3902 58.305 29.5739 58.6674 26.6257L60.2359 13.8505C60.2701 13.5736 60.2406 13.2925 60.1499 13.0286C60.0591 12.7648 59.9094 12.5251 59.712 12.3278C59.5147 12.1305 59.275 11.9807 59.0112 11.89C58.7473 11.7992 58.4662 11.7697 58.1893 11.8039L45.4142 13.3724C42.4659 13.7348 39.6496 14.8072 37.207 16.4977C34.7644 18.1881 32.7686 20.446 31.3907 23.0776L21.5795 41.8066ZM21.5795 41.8066L10.7623 39.6431C10.7623 39.6431 15.0891 26.6624 28.0698 28.8259M15.0891 48.2969C10.7623 52.6238 12.9257 59.1141 12.9257 59.1141C12.9257 59.1141 19.416 61.2776 23.7429 56.9507M44.1464 44.9024C46.3098 57.8831 33.3292 62.21 33.3292 62.21L31.1657 51.3928" stroke="black" stroke-width="4" stroke-linecap="round" stroke-linejoin="round"/>
<path d="M38.887 33.1525C37.7394 32.005 37.0947 30.4486 37.0947 28.8257C37.0947 27.2028 37.7394 25.6463 38.887 24.4988C40.0345 23.3512 41.591 22.7065 43.2139 22.7065C44.8368 22.7065 46.3932 23.3512 47.5408 24.4988C48.6883 25.6463 49.333 27.2028 49.333 28.8257C49.333 30.4486 48.6883 32.005 47.5408 33.1525C46.3932 34.3001 44.8368 34.9448 43.2139 34.9448C41.591 34.9448 40.0345 34.3001 38.887 33.1525Z" stroke="black" stroke-width="4" stroke-linecap="round" stroke-linejoin="round"/>
</svg>
