<svg width="61" height="58" viewBox="0 0 61 58" fill="none" xmlns="http://www.w3.org/2000/svg">
<path d="M59 5.64614C59 3.89496 57.5934 2.47534 55.8583 2.47534H5.14173C3.4066 2.47534 2 3.89496 2 5.64614V40.5249C2 42.2761 3.4066 43.6957 5.14173 43.6957H41.5412C42.3744 43.6957 43.1735 44.0298 43.7627 44.6244L53.6367 54.5898C55.6159 56.5873 59 55.1726 59 52.3477V5.64614Z" stroke="black" stroke-width="4" stroke-linecap="round" stroke-linejoin="round"/>
<path d="M45 13C45 15.2091 42.7614 17 40 17C37.2386 17 35 15.2091 35 13" stroke="black" stroke-width="4" stroke-linecap="round" stroke-linejoin="round"/>
<path d="M26 13C26 15.2091 23.7614 17 21 17C18.2386 17 16 15.2091 16 13" stroke="black" stroke-width="4" stroke-linecap="round" stroke-linejoin="round"/>
<path d="M44 24C44 29.5228 37.9558 34 30.5 34C23.0442 34 17 29.5228 17 24" stroke="black" stroke-width="4" stroke-linecap="round" stroke-linejoin="round"/>
</svg>
