<svg width="74" height="66" viewBox="0 0 74 66" fill="none" xmlns="http://www.w3.org/2000/svg">
<path d="M48.2662 40.8774H13.5613C7.17105 40.8774 2 46.059 2 52.4387C2 58.829 7.18156 64 13.5613 64H59.8274C66.2177 64 71.3887 58.8185 71.3887 52.4387C71.3887 46.0485 66.2072 40.8774 59.8274 40.8774H48.2662Z" stroke="white" stroke-width="4" stroke-miterlimit="10"/>
<path d="M13.5621 55.6968C11.7649 55.6968 10.3145 54.2358 10.3145 52.4491C10.3145 50.6624 11.7754 49.1909 13.5621 49.1909C15.3489 49.1909 16.8203 50.6518 16.8203 52.4491C16.8203 54.2464 15.3594 55.6968 13.5621 55.6968Z" stroke="white" stroke-width="4" stroke-miterlimit="10"/>
<path d="M36.7054 55.6968C34.9082 55.6968 33.4473 54.2358 33.4473 52.4491C33.4473 50.6624 34.9082 49.1909 36.7054 49.1909C38.5027 49.1909 39.9531 50.6518 39.9531 52.4491C39.9531 54.2464 38.4922 55.6968 36.7054 55.6968Z" stroke="white" stroke-width="4" stroke-miterlimit="10"/>
<path d="M59.8275 55.6968C58.0303 55.6968 56.5693 54.2358 56.5693 52.4491C56.5693 50.6624 58.0303 49.1909 59.8275 49.1909C61.6248 49.1909 63.0752 50.6518 63.0752 52.4491C63.0752 54.2464 61.6143 55.6968 59.8275 55.6968Z" stroke="white" stroke-width="4" stroke-miterlimit="10"/>
<path d="M66.8478 33.3626L55.3916 2.88286C55.1919 2.35735 54.6874 2 54.1199 2H44.8078C44.2403 2 43.7358 2.35735 43.5361 2.88286L34.9807 25.6481L32.0799 33.3626C31.7436 34.256 32.4057 35.2019 33.3621 35.2019H40.8454C41.455 35.2019 41.9805 34.8025 42.1487 34.2244L43.1997 30.7035C43.3679 30.1254 43.8934 29.7261 44.503 29.7261H54.1199C54.719 29.7261 55.255 30.1149 55.4232 30.693L56.4952 34.235C56.6739 34.813 57.1994 35.2019 57.7985 35.2019H65.5656C66.522 35.2019 67.1736 34.256 66.8478 33.3626ZM51.156 22.5476H47.551C46.6366 22.5476 45.985 21.6647 46.2477 20.7818L48.045 14.8751C48.4338 13.5928 50.2521 13.5928 50.6515 14.8751L52.4593 20.7818C52.7325 21.6542 52.0704 22.5476 51.156 22.5476Z" stroke="white" stroke-width="4" stroke-miterlimit="10"/>
<path d="M32.0806 33.3628L34.9814 25.6482L27.6032 6.01509C27.4245 5.53162 26.9621 5.21631 26.4576 5.21631H18.0494C17.5344 5.21631 17.0825 5.53162 16.9038 6.01509L6.55118 33.5415C6.24638 34.3507 6.84546 35.2021 7.7073 35.2021H14.4654C15.0119 35.2021 15.4954 34.8447 15.6531 34.3192L16.5885 31.1346C16.7461 30.6091 17.2296 30.2517 17.7761 30.2517H26.4576C27.0041 30.2517 27.4771 30.6091 27.6348 31.1241L28.6017 34.3297C28.7593 34.8552 29.2428 35.2021 29.7894 35.2021H33.3628C32.4064 35.2021 31.7443 34.2562 32.0806 33.3628ZM23.788 23.7669H20.5193C19.6995 23.7669 19.1109 22.9681 19.3422 22.1799L20.9712 16.8407C21.3181 15.6845 22.9682 15.6845 23.3255 16.8407L24.9651 22.1799C25.2069 22.9681 24.6078 23.7669 23.788 23.7669Z" stroke="white" stroke-width="4" stroke-miterlimit="10"/>
</svg>
