<svg width="59" height="51" viewBox="0 0 59 51" fill="none" xmlns="http://www.w3.org/2000/svg">
<path d="M20.7034 49V37.7685L25.9293 38.3164C27.4507 38.2322 28.8905 37.6039 29.984 36.547C31.0775 35.4901 31.7512 34.0757 31.8814 32.5636V16.9491C31.8996 13.0025 30.343 9.21042 27.554 6.40695C24.7649 3.60349 20.972 2.01832 17.0095 2.00016C13.0469 1.98199 9.23947 3.53233 6.42465 6.3101C3.60983 9.08788 2.01824 12.8656 2 16.8121C2 24.4824 3.80432 25.1782 4.7505 29.2763C5.38668 31.7517 5.41404 34.3434 4.83026 36.8316L2 49M50.9588 42.9733C54.8255 39.1218 56.9985 33.8987 57 28.4521C57.0015 23.0055 54.8316 17.7812 50.9671 13.9275M43.2574 35.303C44.1573 34.4069 44.8699 33.3421 45.354 32.17C45.8381 30.9979 46.084 29.7418 46.0776 28.4745C46.0712 27.2071 45.8126 25.9536 45.3167 24.7864C44.8209 23.6192 44.0976 22.5615 43.1887 21.6745" stroke="black" stroke-width="4" stroke-linecap="round" stroke-linejoin="round"/>
</svg>
