<svg width="54" height="60" viewBox="0 0 54 60" fill="none" xmlns="http://www.w3.org/2000/svg">
<path d="M39.5 2V14.4444M14.5 2V14.4444M2 26.8889H52M23.875 39.3333H27V48.6667M2 14.4444C2 12.7942 2.65848 11.2116 3.83058 10.0447C5.00268 8.87778 6.5924 8.22222 8.25 8.22222H45.75C47.4076 8.22222 48.9973 8.87778 50.1694 10.0447C51.3415 11.2116 52 12.7942 52 14.4444V51.7778C52 53.428 51.3415 55.0107 50.1694 56.1776C48.9973 57.3444 47.4076 58 45.75 58H8.25C6.5924 58 5.00268 57.3444 3.83058 56.1776C2.65848 55.0107 2 53.428 2 51.7778V14.4444Z" stroke="black" stroke-width="4" stroke-linecap="round" stroke-linejoin="round"/>
</svg>
