<svg width="54" height="60" viewBox="0 0 54 60" fill="none" xmlns="http://www.w3.org/2000/svg">
<path d="M15 6C15 7.5913 14.3679 9.11742 13.2426 10.2426C12.1174 11.3679 10.5913 12 9 12C7.4087 12 5.88258 11.3679 4.75736 10.2426C3.63214 9.11742 3 7.5913 3 6C3 4.4087 3.63214 2.88258 4.75736 1.75736C5.88258 0.632141 7.4087 0 9 0C10.5913 0 12.1174 0.632141 13.2426 1.75736C14.3679 2.88258 15 4.4087 15 6ZM6 42V60H1.10126e-07V24C-0.000277445 22.2254 0.524099 20.4903 1.50721 19.0128C2.49031 17.5354 3.88826 16.3815 5.5253 15.6964C7.16235 15.0112 8.96541 14.8254 10.7078 15.1621C12.4502 15.4989 14.0541 16.3432 15.318 17.589L22.44 24.318L29.379 17.379L33.621 21.621L22.56 32.682L18 28.38V60H12V42H6ZM21 9H48V36H21V42H34.095L42.567 60H49.197L40.728 42H51C51.7957 42 52.5587 41.6839 53.1213 41.1213C53.6839 40.5587 54 39.7957 54 39V6C54 5.20435 53.6839 4.44129 53.1213 3.87868C52.5587 3.31607 51.7957 3 51 3H21V9Z" fill="white"/>
</svg>
