<svg width="63" height="60" viewBox="0 0 63 60" fill="none" xmlns="http://www.w3.org/2000/svg">
<path d="M42.2273 39.3333C42.2273 36.3867 33.8225 34 23.4545 34M42.2273 39.3333C42.2273 42.28 33.8225 44.6667 23.4545 44.6667C13.0866 44.6667 4.68182 42.28 4.68182 39.3333M42.2273 39.3333V52.4987C42.2273 55.536 33.8225 58 23.4545 58C13.0866 58 4.68182 55.5387 4.68182 52.4987V39.3333M42.2273 39.3333C52.4825 39.3333 61 36.7013 61 34V7.33333M23.4545 34C13.0866 34 4.68182 36.3867 4.68182 39.3333M23.4545 34C11.6063 34 2 31.368 2 28.6667V15.3333M23.4545 10C11.6063 10 2 12.3867 2 15.3333M2 15.3333C2 18.28 11.6063 20.6667 23.4545 20.6667C23.4545 23.368 32.1785 26 42.4338 26C52.6864 26 61 23.368 61 20.6667M61 7.33333C61 4.38667 52.6864 2 42.4338 2C32.1785 2 23.8675 4.38667 23.8675 7.33333M61 7.33333C61 10.28 52.6864 12.6667 42.4338 12.6667C32.1812 12.6667 23.8675 10.28 23.8675 7.33333M23.8675 7.33333V34.4427" stroke="white" stroke-width="4"/>
</svg>
