<svg width="432" height="555" viewBox="0 0 432 555" fill="none" xmlns="http://www.w3.org/2000/svg">
<path d="M322.09 347.663V229.638H440.115V230.2C440.115 295.028 387.479 347.663 322.652 347.663H322.09Z" fill="#D9000F"/>
<path d="M440.149 436.973V554.998H322.124V554.437C322.124 489.609 374.759 436.94 439.62 436.94H440.182L440.149 436.973Z" fill="#D9000F"/>
<path d="M322.123 466.548V348.523H440.148V349.085C440.148 413.913 387.512 466.581 322.652 466.581H322.09L322.123 466.548Z" fill="black"/>
<path d="M551.73 229.607L322.123 229.607V0H323.18C449.3 0 551.73 102.396 551.73 228.549V229.64V229.607Z" fill="black"/>
<path d="M322.123 551.96H320.603C143.632 551.96 -3.05176e-05 408.295 -3.05176e-05 231.357V229.837L322.123 229.837L322.123 551.96Z" fill="black"/>
<path d="M322.091 348.258V229.837H203.67C203.67 295.226 256.702 348.258 322.091 348.258Z" fill="white"/>
<path d="M322.092 51.6767C223.826 51.6767 144.162 131.34 144.162 229.606H322.092V51.6767Z" fill="#D9000F"/>
</svg>
