<svg width="68" height="17" viewBox="0 0 68 17" fill="none" xmlns="http://www.w3.org/2000/svg">
<path d="M67.9172 10.789H62.3409V9.86572H67.9172V10.789Z" fill="#757575"/>
<path d="M67.9173 5.27051V6.18546H67.4205C67.8055 6.51252 68.0001 6.94723 68.0001 7.49371C68.0001 7.8953 67.8883 8.23478 67.6689 8.51216C67.4454 8.78955 67.139 8.93031 66.7416 8.93031C66.3069 8.93031 65.9799 8.78127 65.7563 8.47904C65.5328 8.17682 65.421 7.78352 65.421 7.29499C65.421 6.90169 65.479 6.52908 65.5908 6.18132H65.5162C65.2347 6.18132 65.0236 6.26826 64.8746 6.438C64.7255 6.60774 64.651 6.85615 64.651 7.17493C64.651 7.54339 64.7338 7.92428 64.9036 8.33L64.1625 8.58254C63.939 8.0816 63.8272 7.57237 63.8272 7.04659C63.8272 6.46284 63.9762 6.01986 64.2702 5.72177C64.5641 5.42369 64.9863 5.27465 65.5287 5.27465H67.9215L67.9173 5.27051ZM66.4601 6.16476H66.2324C66.1248 6.438 66.071 6.7485 66.071 7.08799C66.071 7.37779 66.1289 7.60549 66.2407 7.76696C66.3525 7.92842 66.5098 8.01122 66.7126 8.01122C66.8948 8.01122 67.0397 7.9367 67.1473 7.78766C67.2549 7.63861 67.3088 7.45231 67.3088 7.22875C67.3088 6.91825 67.2301 6.66156 67.0728 6.46284C66.9155 6.25998 66.7126 6.16062 66.4601 6.16062V6.16476Z" fill="#757575"/>
<path d="M67.9999 1.87958C67.9999 2.43435 67.764 2.88975 67.2879 3.2458H67.913V4.16903H62.3367V3.2458H64.5515C64.0465 2.88975 63.7939 2.43435 63.7939 1.87958C63.7939 1.37036 63.9844 0.93151 64.3652 0.558906C64.7461 0.186302 65.2594 0 65.9052 0C66.551 0 67.0519 0.186302 67.4287 0.558906C67.8095 0.93151 67.9999 1.37036 67.9999 1.87958ZM67.1968 2.09486C67.1968 1.7678 67.0768 1.49456 66.8367 1.27513C66.5966 1.05157 66.2819 0.943931 65.8887 0.943931C65.4954 0.943931 65.1973 1.05571 64.9572 1.27927C64.7171 1.50284 64.597 1.77608 64.597 2.09486C64.597 2.41365 64.7212 2.69103 64.9655 2.92287C65.2097 3.15472 65.5244 3.27064 65.9052 3.27064C66.2861 3.27064 66.5924 3.15472 66.8325 2.92287C67.0726 2.69103 67.1968 2.41365 67.1968 2.09486Z" fill="#757575"/>
<path d="M0 16.1747V13.6244H0.447096V13.9515C0.620966 13.7072 0.840374 13.583 1.10946 13.583C1.35785 13.583 1.56897 13.6741 1.75112 13.8604C1.93327 14.0426 2.02021 14.2951 2.02021 14.6056C2.02021 14.9161 1.92914 15.1604 1.75112 15.3467C1.57311 15.5288 1.35785 15.6241 1.10946 15.6241C0.840374 15.6241 0.620966 15.5081 0.447096 15.2804V16.1788H0V16.1747ZM1.00597 15.2349C1.16328 15.2349 1.29575 15.1769 1.40338 15.061C1.51102 14.9451 1.56483 14.7919 1.56483 14.6015C1.56483 14.411 1.51102 14.2661 1.40338 14.1502C1.29575 14.0343 1.16328 13.9763 1.00597 13.9763C0.848654 13.9763 0.716181 14.0343 0.604407 14.1543C0.492633 14.2744 0.434676 14.4234 0.434676 14.6097C0.434676 14.796 0.492633 14.9409 0.604407 15.061C0.716181 15.1769 0.852794 15.239 1.00597 15.239V15.2349Z" fill="#757575"/>
<path d="M4.49582 15.5786H4.05287V15.3384C3.89556 15.5247 3.68443 15.62 3.41948 15.62C3.22491 15.62 3.05932 15.5661 2.92685 15.4585C2.79438 15.3508 2.724 15.2018 2.724 15.0072C2.724 14.7961 2.79852 14.6388 2.94341 14.5311C3.0883 14.4235 3.27873 14.3697 3.51884 14.3697C3.70927 14.3697 3.89142 14.3986 4.06115 14.4525V14.4152C4.06115 14.2786 4.01975 14.1751 3.93695 14.1047C3.85416 14.0343 3.7341 13.9971 3.58093 13.9971C3.40292 13.9971 3.21663 14.0385 3.02206 14.1213L2.90201 13.7611C3.14212 13.6534 3.3905 13.5996 3.64717 13.5996C3.93281 13.5996 4.14394 13.67 4.28883 13.8149C4.43373 13.9598 4.5041 14.1627 4.5041 14.4276V15.5868L4.49582 15.5786ZM4.06115 14.8706V14.7588C3.92867 14.705 3.77964 14.6802 3.61405 14.6802C3.4733 14.6802 3.36152 14.7091 3.28287 14.763C3.20421 14.8168 3.16282 14.8954 3.16282 14.9907C3.16282 15.0776 3.20007 15.148 3.27045 15.2018C3.34083 15.2556 3.4319 15.2805 3.53953 15.2805C3.68857 15.2805 3.81276 15.2432 3.91211 15.1645C4.01147 15.09 4.05701 14.9907 4.05701 14.8665L4.06115 14.8706Z" fill="#757575"/>
<path d="M6.06482 15.6241C5.7295 15.6241 5.44385 15.5247 5.20789 15.326L5.41901 15.0279C5.60116 15.1852 5.80815 15.2597 6.03584 15.2597C6.13934 15.2597 6.22627 15.2349 6.29665 15.1852C6.36702 15.1355 6.40428 15.0693 6.40428 14.9906C6.40428 14.9161 6.37116 14.8581 6.30079 14.8126C6.23041 14.7671 6.1352 14.7464 6.00686 14.7464H5.76676V14.4234H6.00686C6.11036 14.4234 6.19315 14.3986 6.25525 14.3531C6.31735 14.3075 6.35046 14.2454 6.35046 14.1709C6.35046 14.1047 6.32149 14.0508 6.25939 14.0094C6.19729 13.968 6.12278 13.9473 6.02756 13.9473C5.80815 13.9473 5.626 14.0136 5.47283 14.1461L5.27412 13.8645C5.48939 13.6782 5.75434 13.583 6.06896 13.583C6.28423 13.583 6.4581 13.6327 6.59471 13.732C6.73132 13.8314 6.79756 13.9556 6.79756 14.1088C6.79756 14.3158 6.69407 14.4648 6.49122 14.5518C6.72718 14.6346 6.84724 14.7919 6.84724 15.0279C6.84724 15.1976 6.77272 15.3384 6.62783 15.4543C6.48294 15.5702 6.29251 15.6282 6.06068 15.6282L6.06482 15.6241Z" fill="#757575"/>
<path d="M7.68762 16.1747V13.6244H8.13472V13.9515C8.30859 13.7072 8.528 13.583 8.79708 13.583C9.04547 13.583 9.2566 13.6741 9.43875 13.8604C9.6209 14.0426 9.70783 14.2951 9.70783 14.6056C9.70783 14.9161 9.61676 15.1604 9.43875 15.3467C9.26074 15.5288 9.04547 15.6241 8.79708 15.6241C8.528 15.6241 8.30859 15.5081 8.13472 15.2804V16.1788H7.68762V16.1747ZM8.69359 15.2349C8.8509 15.2349 8.98337 15.1769 9.09101 15.061C9.19864 14.9451 9.25246 14.7919 9.25246 14.6015C9.25246 14.411 9.19864 14.2661 9.09101 14.1502C8.98337 14.0343 8.8509 13.9763 8.69359 13.9763C8.53628 13.9763 8.4038 14.0343 8.29203 14.1543C8.18026 14.2744 8.1223 14.4234 8.1223 14.6097C8.1223 14.796 8.18026 14.9409 8.29203 15.061C8.4038 15.1769 8.54042 15.239 8.69359 15.239V15.2349Z" fill="#757575"/>
<path d="M12.1833 15.5786H11.7404V15.3384C11.5831 15.5247 11.3719 15.62 11.107 15.62C10.9124 15.62 10.7468 15.5661 10.6143 15.4585C10.4819 15.3508 10.4115 15.2018 10.4115 15.0072C10.4115 14.7961 10.486 14.6388 10.6309 14.5311C10.7758 14.4235 10.9662 14.3697 11.2063 14.3697C11.3968 14.3697 11.5789 14.3986 11.7486 14.4525V14.4152C11.7486 14.2786 11.7072 14.1751 11.6245 14.1047C11.5417 14.0343 11.4216 13.9971 11.2684 13.9971C11.0904 13.9971 10.9041 14.0385 10.7096 14.1213L10.5895 13.7611C10.8296 13.6534 11.078 13.5996 11.3347 13.5996C11.6203 13.5996 11.8314 13.67 11.9763 13.8149C12.1212 13.9598 12.1916 14.1627 12.1916 14.4276V15.5868L12.1833 15.5786ZM11.7486 14.8706V14.7588C11.6162 14.705 11.4671 14.6802 11.3016 14.6802C11.1608 14.6802 11.049 14.7091 10.9704 14.763C10.8917 14.8168 10.8503 14.8954 10.8503 14.9907C10.8503 15.0776 10.8876 15.148 10.9579 15.2018C11.0283 15.2556 11.1194 15.2805 11.227 15.2805C11.3761 15.2805 11.5003 15.2432 11.5996 15.1645C11.699 15.09 11.7445 14.9907 11.7445 14.8665L11.7486 14.8706Z" fill="#757575"/>
<path d="M14.0339 15.6243C13.7193 15.6243 13.4709 15.5249 13.2929 15.3262C13.1149 15.1275 13.028 14.846 13.028 14.4858C13.028 14.3699 13.028 14.2664 13.0362 14.1794C13.0404 14.0925 13.0528 13.9972 13.0735 13.8937C13.0901 13.7902 13.119 13.7033 13.1521 13.6246C13.1894 13.5501 13.2349 13.4756 13.2888 13.4052C13.3426 13.3348 13.4171 13.2769 13.504 13.2272C13.591 13.1775 13.6945 13.1444 13.8104 13.1196L14.8784 12.896L14.9529 13.2562L13.8849 13.488C13.7069 13.5253 13.5785 13.5915 13.504 13.6867C13.4254 13.782 13.384 13.902 13.3716 14.0428C13.4295 13.9434 13.5247 13.8565 13.6531 13.7861C13.7814 13.7116 13.9387 13.6785 14.125 13.6785C14.3775 13.6785 14.5969 13.7695 14.7832 13.9558C14.9654 14.138 15.0606 14.3657 15.0606 14.6307C15.0606 14.8956 14.9654 15.1399 14.7708 15.3345C14.5762 15.5291 14.3361 15.6284 14.0422 15.6284L14.0339 15.6243ZM14.0422 15.2351C14.2078 15.2351 14.3444 15.1772 14.4479 15.0612C14.5514 14.9453 14.6052 14.8046 14.6052 14.6348C14.6052 14.4651 14.5514 14.3243 14.4396 14.2084C14.3278 14.0925 14.1954 14.0345 14.0339 14.0345C13.8725 14.0345 13.7359 14.0925 13.6324 14.2084C13.5289 14.3243 13.475 14.4692 13.475 14.639C13.475 14.8087 13.5289 14.9495 13.6365 15.0654C13.7441 15.1813 13.8807 15.2393 14.0381 15.2393L14.0422 15.2351Z" fill="#757575"/>
<path d="M16.8116 15.6243C16.5135 15.6243 16.2693 15.5249 16.0706 15.3262C15.8719 15.1275 15.7725 14.8874 15.7725 14.6017C15.7725 14.316 15.8719 14.0759 16.0706 13.8772C16.2693 13.6785 16.5177 13.5791 16.8157 13.5791C17.1138 13.5791 17.3581 13.6785 17.5568 13.8772C17.7555 14.0759 17.8548 14.316 17.8548 14.6017C17.8548 14.8874 17.7555 15.1233 17.5568 15.3221C17.3581 15.5208 17.1055 15.6201 16.8075 15.6201L16.8116 15.6243ZM16.8199 15.2351C16.9979 15.2351 17.1428 15.173 17.2504 15.053C17.3581 14.9329 17.4119 14.7839 17.4119 14.6058C17.4119 14.4278 17.3539 14.2829 17.2421 14.1587C17.1304 14.0386 16.9855 13.9765 16.8116 13.9765C16.6377 13.9765 16.4928 14.0386 16.3852 14.1587C16.2776 14.2788 16.2238 14.4278 16.2238 14.6058C16.2238 14.7839 16.2817 14.9288 16.3935 15.0488C16.5053 15.173 16.6502 15.2351 16.8199 15.2351Z" fill="#757575"/>
<path d="M19.0306 15.5788V14.0056H18.4013V13.6206H20.111V14.0056H19.4818V15.5788H19.0306Z" fill="#757575"/>
<path d="M20.8355 15.5788V13.6206H21.2785V14.5563L22.1313 13.6206H22.657L21.8994 14.4445L22.7232 15.5788H22.1934L21.6014 14.7715L21.2826 15.1069V15.5788H20.8396H20.8355Z" fill="#757575"/>
<path d="M24.9712 15.5786H24.5282V15.3384C24.3709 15.5247 24.1598 15.62 23.8948 15.62C23.7003 15.62 23.5347 15.5661 23.4022 15.4585C23.2697 15.3508 23.1993 15.2018 23.1993 15.0072C23.1993 14.7961 23.2739 14.6388 23.4187 14.5311C23.5636 14.4235 23.7541 14.3697 23.9942 14.3697C24.1846 14.3697 24.3668 14.3986 24.5365 14.4525V14.4152C24.5365 14.2786 24.4951 14.1751 24.4123 14.1047C24.3295 14.0343 24.2094 13.9971 24.0563 13.9971C23.8783 13.9971 23.692 14.0385 23.4974 14.1213L23.3774 13.7611C23.6175 13.6534 23.8658 13.5996 24.1225 13.5996C24.4082 13.5996 24.6193 13.67 24.7642 13.8149C24.9091 13.9598 24.9794 14.1627 24.9794 14.4276V15.5868L24.9712 15.5786ZM24.5365 14.8706V14.7588C24.404 14.705 24.255 14.6802 24.0894 14.6802C23.9486 14.6802 23.8369 14.7091 23.7582 14.763C23.6796 14.8168 23.6382 14.8954 23.6382 14.9907C23.6382 15.0776 23.6754 15.148 23.7458 15.2018C23.8162 15.2556 23.9072 15.2805 24.0149 15.2805C24.1639 15.2805 24.2881 15.2432 24.3875 15.1645C24.4868 15.09 24.5323 14.9907 24.5323 14.8665L24.5365 14.8706Z" fill="#757575"/>
<path d="M28.2622 15.6241C27.9725 15.6241 27.7323 15.5247 27.5419 15.3301C27.3515 15.1355 27.2521 14.8954 27.2521 14.6139V14.6056C27.2521 14.3241 27.3473 14.084 27.5419 13.8852C27.7365 13.6865 27.9766 13.583 28.2664 13.583C28.581 13.583 28.8418 13.6948 29.0488 13.9225L28.7714 14.2206C28.6141 14.0591 28.4485 13.9763 28.2622 13.9763C28.1008 13.9763 27.9683 14.0384 27.8607 14.1585C27.753 14.2785 27.6992 14.4276 27.6992 14.5973V14.6056C27.6992 14.7836 27.753 14.9327 27.8648 15.0527C27.9766 15.1728 28.1132 15.2349 28.2871 15.2349C28.4692 15.2349 28.6348 15.1521 28.7963 14.9906L29.0654 15.2556C28.9577 15.3756 28.8418 15.4667 28.7176 15.5288C28.5934 15.5909 28.4402 15.6241 28.2622 15.6241Z" fill="#757575"/>
<path d="M31.4664 15.5786H31.0234V15.3384C30.8661 15.5247 30.655 15.62 30.3901 15.62C30.1955 15.62 30.0299 15.5661 29.8974 15.4585C29.765 15.3508 29.6946 15.2018 29.6946 15.0072C29.6946 14.7961 29.7691 14.6388 29.914 14.5311C30.0589 14.4235 30.2493 14.3697 30.4894 14.3697C30.6798 14.3697 30.862 14.3986 31.0317 14.4525V14.4152C31.0317 14.2786 30.9903 14.1751 30.9075 14.1047C30.8247 14.0343 30.7047 13.9971 30.5515 13.9971C30.3735 13.9971 30.1872 14.0385 29.9926 14.1213L29.8726 13.7611C30.1127 13.6534 30.3611 13.5996 30.6177 13.5996C30.9034 13.5996 31.1145 13.67 31.2594 13.8149C31.4043 13.9598 31.4747 14.1627 31.4747 14.4276V15.5868L31.4664 15.5786ZM31.0317 14.8706V14.7588C30.8993 14.705 30.7502 14.6802 30.5846 14.6802C30.4439 14.6802 30.3321 14.7091 30.2534 14.763C30.1748 14.8168 30.1334 14.8954 30.1334 14.9907C30.1334 15.0776 30.1707 15.148 30.241 15.2018C30.3114 15.2556 30.4025 15.2805 30.5101 15.2805C30.6591 15.2805 30.7833 15.2432 30.8827 15.1645C30.982 15.09 31.0276 14.9907 31.0276 14.8665L31.0317 14.8706Z" fill="#757575"/>
<path d="M32.3689 15.5788V13.6206H32.8077V14.933C33.2175 14.3492 33.528 13.9145 33.735 13.6206H34.1573V15.5788H33.7226V14.2747L32.7912 15.5788H32.3689ZM33.6522 13.2562C33.5487 13.3473 33.4204 13.397 33.2631 13.397C33.1058 13.397 32.9774 13.3515 32.8739 13.2562C32.7705 13.161 32.7042 13.0368 32.6794 12.8795L32.9526 12.8257C33.0064 12.9954 33.1058 13.0782 33.2589 13.0782C33.4121 13.0782 33.5156 12.9954 33.5653 12.8257L33.8344 12.8795C33.8095 13.0368 33.7474 13.1652 33.6439 13.2562H33.6522Z" fill="#757575"/>
<path d="M35.511 15.5788V14.0056H34.8818V13.6206H36.5915V14.0056H35.9623V15.5788H35.511Z" fill="#757575"/>
<path d="M38.1728 15.6243C37.8747 15.6243 37.6305 15.5249 37.4318 15.3262C37.2331 15.1275 37.1337 14.8874 37.1337 14.6017C37.1337 14.316 37.2331 14.0759 37.4318 13.8772C37.6305 13.6785 37.8789 13.5791 38.177 13.5791C38.475 13.5791 38.7193 13.6785 38.918 13.8772C39.1167 14.0759 39.216 14.316 39.216 14.6017C39.216 14.8874 39.1167 15.1233 38.918 15.3221C38.7193 15.5208 38.4667 15.6201 38.1687 15.6201L38.1728 15.6243ZM38.1811 15.2351C38.3591 15.2351 38.504 15.173 38.6116 15.053C38.7193 14.9329 38.7731 14.7839 38.7731 14.6058C38.7731 14.4278 38.7151 14.2829 38.6033 14.1587C38.4916 14.0386 38.3467 13.9765 38.1728 13.9765C37.9989 13.9765 37.8541 14.0386 37.7464 14.1587C37.6388 14.2788 37.585 14.4278 37.585 14.6058C37.585 14.7839 37.6429 14.9288 37.7547 15.0488C37.8665 15.173 38.0114 15.2351 38.1811 15.2351Z" fill="#757575"/>
<path d="M40.0482 15.5788V13.6206H41.0542C41.2488 13.6206 41.4061 13.6661 41.522 13.7531C41.6379 13.84 41.6959 13.9601 41.6959 14.1091C41.6959 14.312 41.5924 14.4652 41.3812 14.5563C41.6503 14.6349 41.7869 14.7964 41.7869 15.0448C41.7869 15.2104 41.7207 15.3387 41.5924 15.4339C41.464 15.5292 41.286 15.5747 41.0666 15.5747H40.0524L40.0482 15.5788ZM40.487 14.4321H40.9466C41.0376 14.4321 41.108 14.4114 41.1618 14.3658C41.2156 14.3203 41.2405 14.2623 41.2405 14.1919C41.2405 14.1257 41.2156 14.0719 41.1701 14.0305C41.1246 13.9891 41.05 13.9684 40.9548 13.9684H40.487V14.4321ZM40.487 15.2269H40.9962C41.1039 15.2269 41.1867 15.2062 41.2446 15.1566C41.3026 15.111 41.3315 15.0489 41.3315 14.9744C41.3315 14.8999 41.3026 14.8419 41.2405 14.8005C41.1784 14.7591 41.0914 14.7384 40.9755 14.7384H40.4912V15.2269H40.487Z" fill="#757575"/>
<path d="M42.5735 15.5786V15.0693H43.0662V15.5786H42.5735Z" fill="#757575"/>
<path d="M45.4548 15.5788V13.6206H45.8978L46.5105 14.5273L47.1273 13.6206H47.5702V15.5788H47.119V14.2747L46.5022 15.1524L45.8895 14.283V15.5788H45.4507H45.4548Z" fill="#757575"/>
<path d="M50.1452 15.5786H49.7022V15.3384C49.5449 15.5247 49.3338 15.62 49.0688 15.62C48.8743 15.62 48.7087 15.5661 48.5762 15.4585C48.4437 15.3508 48.3734 15.2018 48.3734 15.0072C48.3734 14.7961 48.4479 14.6388 48.5928 14.5311C48.7377 14.4235 48.9281 14.3697 49.1682 14.3697C49.3586 14.3697 49.5408 14.3986 49.7105 14.4525V14.4152C49.7105 14.2786 49.6691 14.1751 49.5863 14.1047C49.5035 14.0343 49.3835 13.9971 49.2303 13.9971C49.0523 13.9971 48.866 14.0385 48.6714 14.1213L48.5514 13.7611C48.7915 13.6534 49.0399 13.5996 49.2965 13.5996C49.5822 13.5996 49.7933 13.67 49.9382 13.8149C50.0831 13.9598 50.1535 14.1627 50.1535 14.4276V15.5868L50.1452 15.5786ZM49.7105 14.8706V14.7588C49.578 14.705 49.429 14.6802 49.2634 14.6802C49.1227 14.6802 49.0109 14.7091 48.9322 14.763C48.8536 14.8168 48.8122 14.8954 48.8122 14.9907C48.8122 15.0776 48.8494 15.148 48.9198 15.2018C48.9902 15.2556 49.0813 15.2805 49.1889 15.2805C49.3379 15.2805 49.4621 15.2432 49.5615 15.1645C49.6608 15.09 49.7064 14.9907 49.7064 14.8665L49.7105 14.8706Z" fill="#757575"/>
<path d="M51.0475 16.1747V13.6244H51.4946V13.9515C51.6685 13.7072 51.8879 13.583 52.157 13.583C52.4054 13.583 52.6165 13.6741 52.7987 13.8604C52.9808 14.0426 53.0678 14.2951 53.0678 14.6056C53.0678 14.9161 52.9767 15.1604 52.7987 15.3467C52.6207 15.5288 52.4054 15.6241 52.157 15.6241C51.8879 15.6241 51.6685 15.5081 51.4946 15.2804V16.1788H51.0475V16.1747ZM52.0535 15.2349C52.2108 15.2349 52.3433 15.1769 52.4509 15.061C52.5586 14.9451 52.6124 14.7919 52.6124 14.6015C52.6124 14.411 52.5586 14.2661 52.4509 14.1502C52.3433 14.0343 52.2108 13.9763 52.0535 13.9763C51.8962 13.9763 51.7637 14.0343 51.652 14.1543C51.5402 14.2744 51.4822 14.4234 51.4822 14.6097C51.4822 14.796 51.5402 14.9409 51.652 15.061C51.7637 15.1769 51.9003 15.239 52.0535 15.239V15.2349Z" fill="#757575"/>
<path d="M53.9 15.5788V13.6206H54.343V14.5563L55.1958 13.6206H55.7215L54.9639 14.4445L55.7878 15.5788H55.2579L54.6659 14.7715L54.3471 15.1069V15.5788H53.9042H53.9Z" fill="#757575"/>
<path d="M57.2532 15.6241C56.9675 15.6241 56.7274 15.5288 56.537 15.3384C56.3466 15.1479 56.2513 14.9037 56.2513 14.6015C56.2513 14.3158 56.3424 14.0757 56.5204 13.8811C56.7026 13.6824 56.9303 13.583 57.2076 13.583C57.5057 13.583 57.7334 13.6824 57.899 13.8852C58.0646 14.0881 58.1474 14.3365 58.1474 14.6346C58.1474 14.6884 58.1474 14.7298 58.1391 14.7588H56.7026C56.7274 14.9161 56.7895 15.0362 56.893 15.1231C56.9965 15.21 57.1207 15.2556 57.2656 15.2556C57.4602 15.2556 57.634 15.1769 57.7955 15.0237L58.0563 15.2556C57.8534 15.4998 57.5885 15.6241 57.2573 15.6241H57.2532ZM56.6943 14.4648H57.7003C57.6837 14.3158 57.634 14.1916 57.5471 14.0922C57.4602 13.9929 57.3442 13.9473 57.2035 13.9473C57.0627 13.9473 56.9551 13.997 56.864 14.0922C56.773 14.1875 56.7191 14.3117 56.6984 14.4648H56.6943Z" fill="#757575"/>
<path d="M59.3106 15.5788V14.0056H58.6814V13.6206H60.3911V14.0056H59.7619V15.5788H59.3106Z" fill="#757575"/>
<path d="M61.1198 15.5788V13.6206H61.5586V14.933C61.9684 14.3493 62.2789 13.9145 62.4859 13.6206H62.9081V15.5788H62.4735V14.2747L61.542 15.5788H61.1198Z" fill="#757575"/>
<path d="M63.8397 15.5788V13.6206H64.2868V14.4155H65.1478V13.6206H65.5949V15.5788H65.1478V14.7881H64.2868V15.5788H63.8397Z" fill="#757575"/>
<path d="M66.5305 15.5788V13.6206H67.9173V14.0056H66.9817V15.5788H66.5346H66.5305Z" fill="#757575"/>
<path d="M12.7091 0.0249023H9.92712V10.8511H17.9045V8.4085H12.7091V0.0249023Z" fill="#757575"/>
<path d="M34.1739 7.0754L31.4831 0.0249023H28.4072L32.8285 10.9132H35.4738L39.9117 0.0249023H36.8772L34.1739 7.0754Z" fill="#757575"/>
<path d="M58.1556 0.0249023V5.97829L53.4238 0.0249023H51.0435V10.8511H53.7798V4.86462L58.5737 10.8511H60.8796V0.0249023H58.1556Z" fill="#757575"/>
<path d="M49.342 0.0249023H41.1163V2.46753H49.342V0.0249023Z" fill="#757575"/>
<path d="M43.5587 5.62271L41.1163 4.21924V6.66187H49.342V4.21924H43.5587V5.62271Z" fill="#757575"/>
<path d="M43.5587 9.81217L41.1163 8.40869V10.8513H49.342V8.40869H43.5587V9.81217Z" fill="#757575"/>
<path d="M0 0.0249023V2.46753V4.21877V6.6614V8.4085V10.8511H2.44247H8.49068V8.4085H2.44247V6.6614H8.49068V4.21877H2.44247V2.46753H8.49068V0.0249023H2.44247H0Z" fill="#757575"/>
<path d="M19.3451 0.0249023V2.46753V4.21877V6.6614V8.4085V10.8511H21.7876H27.5708V8.4085H21.7876V6.6614H27.5708V4.21877H21.7876V2.46753H27.5708V0.0249023H21.7876H19.3451Z" fill="#757575"/>
</svg>
