<svg width="22" height="16" viewBox="0 0 22 16" fill="none" xmlns="http://www.w3.org/2000/svg">
<path d="M18.8065 0H3.19355C2.34685 0.000937769 1.53511 0.337186 0.936406 0.934973C0.337703 1.53276 0.000939206 2.34326 0 3.18866V12.8113C0 14.5694 1.43284 16 3.19355 16H18.8065C20.5672 16 22 14.5694 22 12.8113V3.18866C22 1.43065 20.5672 0 18.8065 0ZM17.8626 2.12577L11.66 7.01506C11.2697 7.31975 10.7303 7.31975 10.34 7.01506L5.30129 3.03986L4.13955 2.12577H17.8626ZM18.8065 13.8742H3.19355C2.60665 13.8742 2.12903 13.3973 2.12903 12.8113V3.25598L9.02 8.68733C9.60194 9.14792 10.3045 9.37467 11 9.37467C11.6955 9.37467 12.3981 9.14792 12.98 8.68733L19.871 3.2581V12.8113C19.871 13.3973 19.3934 13.8742 18.8065 13.8742Z" fill="#D9000F"/>
</svg>
