<svg width="21" height="20" viewBox="0 0 21 20" fill="none" xmlns="http://www.w3.org/2000/svg">
<path fill-rule="evenodd" clip-rule="evenodd" d="M20.6226 17.3277C19.9744 19.2036 17.4348 20.1392 15.6203 19.9832C13.1423 19.7699 10.4459 18.5182 8.39908 17.1396C5.39046 15.1129 2.57224 11.9781 0.930024 8.6515C-0.230586 6.30089 -0.49099 3.41084 1.23522 1.26823C1.87363 0.476253 2.56523 0.053275 3.60124 0.003943C5.04045 -0.0627219 5.24206 0.721393 5.73626 1.94269C6.10446 2.856 6.59587 3.78764 6.87027 4.73428C7.38408 6.5009 5.58786 6.57474 5.36105 8.0187C5.22105 8.92934 6.37887 10.1506 6.90247 10.7999C7.91172 12.0645 9.14782 13.1489 10.5537 14.0036C11.3517 14.4822 12.6369 15.3448 13.5497 14.8688C14.9553 14.1355 14.8237 11.8783 16.7879 12.6423C17.8058 13.0369 18.7914 13.6065 19.763 14.1051C21.2652 14.8744 21.1952 15.6717 20.6226 17.3277C21.051 16.0904 20.1942 18.565 20.6226 17.3277Z" fill="#D9000F"/>
</svg>
