<svg width="40" height="37" viewBox="0 0 40 37" fill="none" xmlns="http://www.w3.org/2000/svg">
<path d="M15.9317 36.6958C19.5913 35.2566 18.7895 31.2885 16.9391 28.7802C15.1093 26.2102 12.5804 24.442 10.0309 22.7355C8.21153 21.5895 6.5873 20.1596 5.21989 18.5002C4.64421 17.8217 3.47229 16.5675 4.66477 16.3208C5.87781 16.0741 7.97493 17.2666 9.04405 17.7189C10.915 18.5002 12.7654 19.4048 14.4925 20.4739L16.569 16.9787C13.3617 14.861 9.24965 12.9901 5.42549 12.435C3.24613 12.106 0.943409 12.5583 0.203249 14.9227C-0.454671 16.9582 0.593889 19.0142 1.78637 20.6178C4.60309 24.3803 8.98237 26.1896 12.2514 29.4381C12.9505 30.1166 13.7934 30.9184 14.2046 31.8642C14.6364 32.7688 14.5336 32.8305 13.5673 32.8305C11.0178 32.8305 7.83101 30.8362 5.75445 29.5203L3.67789 33.0155C6.82357 34.9482 12.0869 37.9705 15.9317 36.6958ZM38.7327 4.62216C39.185 4.16984 39.185 3.42968 38.7327 2.99792L36.0599 0.325114C35.8451 0.116615 35.5574 0 35.2581 0C34.9587 0 34.6711 0.116615 34.4562 0.325114L32.3591 2.42224L36.6356 6.69872M18.5017 16.2797V20.5562H22.7781L35.4225 7.91176L31.1461 3.63528L18.5017 16.2797Z" fill="#D9000F"/>
</svg>
