<svg width="62" height="56" viewBox="0 0 62 56" fill="none" xmlns="http://www.w3.org/2000/svg">
<path d="M43.5417 23.4167H57.2917C58.5072 23.4167 59.673 22.9338 60.5326 22.0742C61.3921 21.2147 61.875 20.0489 61.875 18.8333V5.08333C61.875 3.86776 61.3921 2.70197 60.5326 1.84243C59.673 0.982885 58.5072 0.5 57.2917 0.5H43.5417C42.3261 0.5 41.1603 0.982885 40.3008 1.84243C39.4412 2.70197 38.9583 3.86776 38.9583 5.08333V9.66667H34.375C32.5516 9.66667 30.803 10.391 29.5136 11.6803C28.2243 12.9696 27.5 14.7183 27.5 16.5417V25.7083H18.3333V23.4167C18.3333 22.2011 17.8504 21.0353 16.9909 20.1758C16.1314 19.3162 14.9656 18.8333 13.75 18.8333H4.58333C3.36776 18.8333 2.20197 19.3162 1.34243 20.1758C0.482886 21.0353 0 22.2011 0 23.4167V32.5833C0 33.7989 0.482886 34.9647 1.34243 35.8242C2.20197 36.6838 3.36776 37.1667 4.58333 37.1667H13.75C14.9656 37.1667 16.1314 36.6838 16.9909 35.8242C17.8504 34.9647 18.3333 33.7989 18.3333 32.5833V30.2917H27.5V39.4583C27.5 41.2817 28.2243 43.0304 29.5136 44.3197C30.803 45.609 32.5516 46.3333 34.375 46.3333H38.9583V50.9167C38.9583 52.1322 39.4412 53.298 40.3008 54.1576C41.1603 55.0171 42.3261 55.5 43.5417 55.5H57.2917C58.5072 55.5 59.673 55.0171 60.5326 54.1576C61.3921 53.298 61.875 52.1322 61.875 50.9167V37.1667C61.875 35.9511 61.3921 34.7853 60.5326 33.9258C59.673 33.0662 58.5072 32.5833 57.2917 32.5833H43.5417C42.3261 32.5833 41.1603 33.0662 40.3008 33.9258C39.4412 34.7853 38.9583 35.9511 38.9583 37.1667V41.75H34.375C33.7672 41.75 33.1843 41.5086 32.7545 41.0788C32.3248 40.649 32.0833 40.0661 32.0833 39.4583V16.5417C32.0833 15.9339 32.3248 15.351 32.7545 14.9212C33.1843 14.4914 33.7672 14.25 34.375 14.25H38.9583V18.8333C38.9583 20.0489 39.4412 21.2147 40.3008 22.0742C41.1603 22.9338 42.3261 23.4167 43.5417 23.4167ZM13.75 32.5833H4.58333V23.4167H13.75V32.5833ZM43.5417 37.1667H57.2917V50.9167H43.5417V37.1667ZM43.5417 5.08333H57.2917V18.8333H43.5417V5.08333Z" fill="#D9000F"/>
</svg>
