<svg width="66" height="56" viewBox="0 0 66 56" fill="none" xmlns="http://www.w3.org/2000/svg">
<path d="M64.3692 11.7883L51.7211 5.42498C50.1499 2.54856 46.2345 0.557617 41.5321 0.557617C35.4033 0.557617 30.6026 3.94002 30.6026 8.2574C30.6032 8.86769 30.7009 9.47395 30.8922 10.0531L25.5586 12.737C23.6985 11.9398 21.6947 11.5382 19.6731 11.5573C13.5444 11.5573 8.74359 14.9397 8.74359 19.2571C8.74419 19.8674 8.84197 20.4736 9.03322 21.0528L1.20771 24.9879C0.844545 25.1708 0.539184 25.4519 0.325867 25.7997C0.112549 26.1475 -0.000290179 26.5482 5.60416e-07 26.9569V44.5564C-0.000290179 44.9651 0.112549 45.3658 0.325867 45.7135C0.539184 46.0613 0.844545 46.3424 1.20771 46.5253L18.6949 55.3251C18.9986 55.478 19.3335 55.5576 19.6731 55.5576C20.0127 55.5576 20.3476 55.478 20.6513 55.3251L64.3692 33.3257C64.7324 33.1428 65.0377 32.8617 65.2511 32.5139C65.4644 32.1661 65.5772 31.7654 65.5769 31.3567V13.7572C65.5772 13.3485 65.4644 12.9478 65.2511 12.6001C65.0377 12.2523 64.7324 11.9712 64.3692 11.7883ZM19.6731 33.2982L7.07411 26.9569L11.7492 24.6057C13.7274 26.0604 16.5254 26.9569 19.6731 26.9569C25.8018 26.9569 30.6026 23.5745 30.6026 19.2571C30.5922 17.979 30.1757 16.7379 29.414 15.7152L33.6082 13.606C35.5864 15.0607 38.3844 15.9572 41.5321 15.9572C46.5541 15.9572 50.6828 13.6857 52.0107 10.4903L58.5028 13.7572L19.6731 33.2982ZM41.5321 4.95749C45.2863 4.95749 48.0897 6.70094 48.0897 8.2574C48.0897 9.81385 45.2863 11.5573 41.5321 11.5573C37.7778 11.5573 34.9744 9.81385 34.9744 8.2574C34.9744 6.70094 37.7778 4.95749 41.5321 4.95749ZM19.6731 15.9572C23.4274 15.9572 26.2308 17.7006 26.2308 19.2571C26.2308 20.8135 23.4274 22.557 19.6731 22.557C17.0309 22.557 14.8614 21.6935 13.8067 20.632C13.7367 20.5411 13.66 20.4556 13.5772 20.3763C13.3007 20.0673 13.1378 19.6723 13.1154 19.2571C13.1154 17.7006 15.9188 15.9572 19.6731 15.9572ZM4.3718 30.5153L17.4872 37.1151V49.7977L4.3718 43.1979V30.5153ZM21.859 49.7977V37.1151L61.2051 17.3156V29.9983L21.859 49.7977Z" fill="#D9000F"/>
</svg>
