<svg width="62" height="56" viewBox="0 0 62 56" fill="none" xmlns="http://www.w3.org/2000/svg">
<path d="M39.2348 21.9465C42.2064 21.9465 44.6182 24.3421 44.6182 27.2937V41.8046C44.6182 45.4521 43.1594 48.9502 40.5628 51.5294C37.9661 54.1086 34.4442 55.5576 30.7719 55.5576C27.0997 55.5576 23.5778 54.1086 20.9811 51.5294C18.3844 48.9502 16.9256 45.4521 16.9256 41.8046V27.2937C16.9256 24.3421 19.3344 21.9465 22.3091 21.9465H39.2348ZM39.2348 26.5298H22.3091C22.1052 26.5298 21.9095 26.6103 21.7653 26.7536C21.6211 26.8968 21.5401 27.0911 21.5401 27.2937V41.8046C21.5401 44.2365 22.5127 46.5689 24.244 48.2885C25.9753 50.0082 28.3235 50.9743 30.7719 50.9743C33.2204 50.9743 35.5686 50.0082 37.2999 48.2885C39.0312 46.5689 40.0038 44.2365 40.0038 41.8046V27.2937C40.0038 27.0911 39.9228 26.8968 39.7786 26.7536C39.6343 26.6103 39.4387 26.5298 39.2348 26.5298ZM5.38348 21.9465H15.7843C14.6994 23.2486 14.0366 24.8465 13.8832 26.5298H5.38348C5.17951 26.5298 4.98389 26.6103 4.83966 26.7536C4.69543 26.8968 4.61441 27.0911 4.61441 27.2937V37.2212C4.61362 38.3761 4.87646 39.516 5.38315 40.5554C5.88985 41.5948 6.62721 42.5066 7.53979 43.2222C8.45237 43.9377 9.51641 44.4385 10.6519 44.6867C11.7874 44.9349 12.9648 44.9242 14.0955 44.6554C14.357 46.1954 14.8338 47.6651 15.489 49.031C14.4718 49.306 13.4105 49.4445 12.3051 49.4465C10.6889 49.4465 9.08854 49.1303 7.59542 48.5159C6.1023 47.9014 4.74566 47.0009 3.60299 45.8656C2.46032 44.7304 1.55399 43.3826 0.935786 41.8994C0.317579 40.4162 -0.000403662 38.8265 3.84569e-07 37.2212V27.2937C3.84569e-07 24.3421 2.4118 21.9465 5.38348 21.9465ZM45.7595 21.9465H56.142C59.1136 21.9465 61.5254 24.3421 61.5254 27.2937V37.2243C61.5258 39.0978 61.0926 40.9464 60.2592 42.6272C59.4258 44.3079 58.2145 45.7759 56.7189 46.9176C55.2234 48.0594 53.4836 48.8443 51.634 49.2118C49.7844 49.5793 47.8744 49.5195 46.0518 49.0371C46.7101 47.6682 47.1869 46.1985 47.4515 44.6585C48.0196 44.7929 48.6092 44.8611 49.2203 44.8632C51.26 44.8632 53.2162 44.0584 54.6585 42.6258C56.1008 41.1932 56.911 39.2502 56.911 37.2243V27.2937C56.911 27.0911 56.83 26.8968 56.6858 26.7536C56.5415 26.6103 56.3459 26.5298 56.142 26.5298H47.6607C47.5073 24.8465 46.8445 23.2486 45.7595 21.9465ZM30.7627 0.557617C33.2103 0.557617 35.5577 1.52339 37.2885 3.24247C39.0192 4.96156 39.9915 7.29313 39.9915 9.72428C39.9915 12.1554 39.0192 14.487 37.2885 16.2061C35.5577 17.9252 33.2103 18.891 30.7627 18.891C28.3151 18.891 25.9677 17.9252 24.237 16.2061C22.5062 14.487 21.5339 12.1554 21.5339 9.72428C21.5339 7.29313 22.5062 4.96156 24.237 3.24247C25.9677 1.52339 28.3151 0.557617 30.7627 0.557617ZM50.7585 3.61317C52.7982 3.61317 54.7543 4.41798 56.1966 5.85055C57.6389 7.28312 58.4492 9.2261 58.4492 11.2521C58.4492 13.278 57.6389 15.221 56.1966 16.6536C54.7543 18.0861 52.7982 18.891 50.7585 18.891C48.7188 18.891 46.7626 18.0861 45.3203 16.6536C43.8781 15.221 43.0678 13.278 43.0678 11.2521C43.0678 9.2261 43.8781 7.28312 45.3203 5.85055C46.7626 4.41798 48.7188 3.61317 50.7585 3.61317ZM10.767 3.61317C12.8066 3.61317 14.7628 4.41798 16.2051 5.85055C17.6474 7.28312 18.4576 9.2261 18.4576 11.2521C18.4576 13.278 17.6474 15.221 16.2051 16.6536C14.7628 18.0861 12.8066 18.891 10.767 18.891C8.72726 18.891 6.7711 18.0861 5.32882 16.6536C3.88654 15.221 3.07627 13.278 3.07627 11.2521C3.07627 9.2261 3.88654 7.28312 5.32882 5.85055C6.7711 4.41798 8.72726 3.61317 10.767 3.61317ZM30.7627 5.14095C29.5389 5.14095 28.3652 5.62384 27.4998 6.48338C26.6345 7.34292 26.1483 8.50871 26.1483 9.72428C26.1483 10.9399 26.6345 12.1056 27.4998 12.9652C28.3652 13.8247 29.5389 14.3076 30.7627 14.3076C31.9865 14.3076 33.1602 13.8247 34.0256 12.9652C34.891 12.1056 35.3771 10.9399 35.3771 9.72428C35.3771 8.50871 34.891 7.34292 34.0256 6.48338C33.1602 5.62384 31.9865 5.14095 30.7627 5.14095ZM50.7585 8.19651C49.9426 8.19651 49.1601 8.51843 48.5832 9.09146C48.0063 9.66449 47.6822 10.4417 47.6822 11.2521C47.6822 12.0624 48.0063 12.8396 48.5832 13.4127C49.1601 13.9857 49.9426 14.3076 50.7585 14.3076C51.5744 14.3076 52.3568 13.9857 52.9337 13.4127C53.5106 12.8396 53.8347 12.0624 53.8347 11.2521C53.8347 10.4417 53.5106 9.66449 52.9337 9.09146C52.3568 8.51843 51.5744 8.19651 50.7585 8.19651ZM10.767 8.19651C9.95107 8.19651 9.16861 8.51843 8.5917 9.09146C8.01479 9.66449 7.69068 10.4417 7.69068 11.2521C7.69068 12.0624 8.01479 12.8396 8.5917 13.4127C9.16861 13.9857 9.95107 14.3076 10.767 14.3076C11.5828 14.3076 12.3653 13.9857 12.9422 13.4127C13.5191 12.8396 13.8432 12.0624 13.8432 11.2521C13.8432 10.4417 13.5191 9.66449 12.9422 9.09146C12.3653 8.51843 11.5828 8.19651 10.767 8.19651Z" fill="#D9000F"/>
</svg>
