<svg width="38" height="32" viewBox="0 0 38 32" fill="none" xmlns="http://www.w3.org/2000/svg">
<path d="M36.3289 13.7694C35.1659 21.2015 33.902 29.3261 33.902 29.3261C33.902 29.3261 33.7071 31.6058 32.0567 32C30.2885 31.9723 28.5796 31.3452 27.1996 30.2174C26.8097 29.9192 19.9122 25.4626 17.3879 23.2824C17.1304 23.1051 16.9212 22.8642 16.7798 22.5822C16.6383 22.3001 16.5692 21.9861 16.5789 21.6695C16.5887 21.3528 16.6769 21.0438 16.8354 20.7714C16.9939 20.4989 17.2175 20.2719 17.4854 20.1114C20.9454 16.8745 24.3454 13.5715 27.6836 10.2042C28.85 9.01468 30.0163 6.24136 25.1593 9.61117C18.2618 14.4653 11.4619 19.0213 11.4619 19.0213C10.7616 19.3435 10.0047 19.5184 9.23658 19.5355C8.46844 19.5526 7.70482 19.4115 6.99138 19.1207C4.07712 18.2294 0.678839 17.0398 0.678839 17.0398C0.678839 17.0398 -1.65391 15.5555 2.32924 13.9546C2.32924 13.9546 19.1358 6.92012 24.9643 4.44504C27.1996 3.45433 34.776 0.283347 34.776 0.283347C34.776 0.283347 38.2751 -1.10503 37.9826 2.26478C37.8852 3.66686 37.1087 8.52104 36.3289 13.7694Z" fill="#D9000F"/>
</svg>
