<svg width="42" height="26" viewBox="0 0 42 26" fill="none" xmlns="http://www.w3.org/2000/svg">
<path d="M34.8525 14.9091C34.1734 13.9991 34.3677 13.5943 34.8525 12.7809C34.8612 12.7716 40.4667 4.55186 41.0442 1.76429L41.0477 1.76243C41.3347 0.746571 41.0477 0 39.6599 0H35.0677C33.8987 0 33.3597 0.640714 33.0709 1.35757C33.0709 1.35757 30.7328 7.29671 27.4252 11.1466C26.3577 12.259 25.8641 12.6156 25.2814 12.6156C24.9944 12.6156 24.5481 12.259 24.5481 11.2431V1.76243C24.5481 0.544143 24.2208 0 23.2531 0H16.0323C15.299 0 14.8633 0.568286 14.8633 1.09757C14.8633 2.25271 16.5171 2.51829 16.6886 5.76829V12.8199C16.6886 14.365 16.4243 14.6491 15.838 14.6491C14.277 14.6491 10.4881 8.68586 8.24279 1.86086C7.78952 0.536714 7.34676 0.00185701 6.16896 0.00185701H1.57505C0.264259 0.00185701 0 0.642571 0 1.35943C0 2.626 1.56105 8.92357 7.25925 17.2436C11.0569 22.9227 16.4051 26 21.2702 26C24.1946 26 24.5516 25.3166 24.5516 24.141C24.5516 18.7144 24.2873 18.2019 25.7521 18.2019C26.4312 18.2019 27.6002 18.5584 30.3303 21.2977C33.4507 24.5459 33.9634 26 35.71 26H40.3021C41.6112 26 42.2745 25.3166 41.893 23.9683C41.0197 21.1324 35.1185 15.2991 34.8525 14.9091Z" fill="#D9000F"/>
</svg>
