<svg width="158" height="791" viewBox="0 0 158 791" fill="none" xmlns="http://www.w3.org/2000/svg">
<path d="M3.61305 455.399C19.9183 444.013 35.9546 432.811 52.0171 421.589C52.2598 421.798 52.3385 421.831 52.3647 421.89C52.6468 422.441 52.9223 422.992 53.1912 423.55C56.8772 431.23 61.7963 437.94 68.729 442.99C80.994 451.917 94.7806 454.199 109.499 452.022C127.116 449.418 139.676 439.842 147.605 424.009C153.239 412.76 155.253 400.653 155.364 388.25C155.568 366.442 155.423 344.634 155.423 322.826C155.423 322.216 155.358 321.613 155.325 320.924L3.63928 320.924L3.63928 356.145L45.6813 356.145L45.6813 358.644C45.6813 367.813 45.6157 376.982 45.7338 386.145C45.76 387.994 45.1173 388.991 43.6678 389.988C30.8387 398.797 18.0621 407.69 5.23964 416.519C4.00003 417.371 3.38349 418.224 3.39662 419.851C3.48187 431.033 3.44251 442.216 3.44908 453.399C3.44908 453.976 3.54746 454.547 3.61961 455.406L3.61305 455.399ZM90.4059 415.673C81.8729 412.577 77.2096 406.084 75.2157 397.603C74.2581 393.537 73.8908 389.26 73.7924 385.069C73.5825 375.979 73.7203 366.875 73.7268 357.778C73.7268 357.306 73.7924 356.827 73.8449 356.138L126.801 356.138C126.801 356.807 126.801 357.463 126.801 358.119C126.801 367.564 126.932 377.008 126.755 386.453C126.617 393.707 125.423 400.784 121.278 407.008C116.91 413.561 110.561 416.551 102.9 417.03C98.6766 417.293 94.4593 417.135 90.4125 415.666L90.4059 415.673Z" fill="#E31E25"/>
<path d="M52.2194 581.249C56.1744 589.966 61.2181 597.22 68.5509 602.684C80.888 611.879 94.8845 613.807 109.675 611.853C118.3 610.712 126.157 607.504 133.031 602.093C144.318 593.206 150.143 581.066 153.258 567.43C154.885 560.327 155.265 553.053 155.272 545.773C155.291 524.935 155.278 504.105 155.272 483.267C155.272 482.52 155.213 481.772 155.18 481.018L3.69072 481.018L3.69072 515.727L45.6409 515.727C45.7327 516.475 45.8574 517.006 45.8574 517.544C45.8705 527.264 45.9098 536.991 45.8049 546.711C45.7918 547.609 45.0506 548.816 44.2832 549.354C31.2574 558.484 18.1791 567.548 5.06807 576.553C3.94651 577.321 3.53987 578.095 3.54641 579.4C3.58576 590.648 3.5661 601.903 3.57264 613.152C3.57264 613.722 3.67103 614.293 3.74319 615.073C12.0401 609.315 20.0812 603.766 28.0961 598.171C36.1175 592.57 44.1193 586.929 52.2063 581.249L52.2194 581.249ZM87.3353 574.212C81.498 571.241 77.9759 566.289 75.923 560.222C73.9094 554.26 73.4765 548.062 73.4765 541.818C73.4765 533.829 73.5028 525.841 73.4569 517.852C73.4503 516.461 73.634 515.687 75.3458 515.687C92.1298 515.74 108.92 515.72 125.704 515.727C125.973 515.727 126.242 515.786 126.826 515.858C126.826 518.573 126.826 521.131 126.826 523.689C126.826 531.678 127.029 539.673 126.747 547.649C126.491 554.935 125.075 562.045 120.484 568.033C116.411 573.346 110.921 576.061 104.257 576.789C98.3345 577.432 92.6677 576.927 87.3222 574.212L87.3353 574.212Z" fill="#E31E25"/>
<path d="M36.0918 740.654C35.4163 741.015 34.8916 741.356 34.3275 741.592C24.791 745.54 15.261 749.528 5.68514 753.372C4.07166 754.021 3.52073 754.788 3.53385 756.52C3.6191 766.45 3.57319 776.387 3.57319 786.317L3.57319 791C4.93087 790.422 5.8819 790.042 6.81326 789.629C27.8671 780.224 48.9274 770.825 69.9747 761.4C87.1916 753.693 104.389 745.941 121.599 738.221C132.211 733.459 142.837 728.717 153.462 723.982C154.702 723.431 155.338 722.716 155.325 721.174C155.246 710.825 155.259 700.475 155.312 690.125C155.318 688.787 154.8 688.138 153.652 687.633C145.198 683.92 136.757 680.182 128.329 676.417C106.757 666.789 85.1977 657.147 63.6258 647.512C48.7241 640.855 33.8159 634.204 18.9143 627.554C13.9099 625.317 8.89897 623.094 3.82899 620.831C3.7175 621.205 3.61256 621.395 3.61256 621.579C3.59944 632.834 3.56665 644.082 3.65191 655.337C3.65191 655.98 4.43896 656.931 5.08174 657.2C14.6576 661.227 24.2597 665.188 33.8881 669.084C35.495 669.734 36.1574 670.527 36.1509 672.37C36.0787 694.46 36.105 716.544 36.105 738.634L36.105 740.648L36.0918 740.654ZM62.6878 681.349C82.1085 689.403 101.287 697.359 121.074 705.564C101.3 713.763 82.1085 721.725 62.6878 729.773L62.6878 681.349Z" fill="#E31E25"/>
<path d="M87.2496 294.119C86.8758 290.885 86.5806 288.144 86.233 285.402C85.1705 277.105 84.0489 268.815 83.0585 260.511C82.8946 259.121 82.5338 258.668 81.0843 258.616C77.3589 258.485 73.5942 258.393 69.9278 257.796C56.9217 255.671 46.2701 249.512 38.8193 238.448C31.48 227.553 29.3353 215.479 31.3751 202.59C33.4411 189.571 39.6326 179.031 50.6252 171.666C62.8115 163.506 76.3095 161.637 90.5028 164.412C117.873 169.757 131.489 194.523 127.317 219.42C126.517 224.189 124.799 228.8 123.454 233.673C132.105 238.441 141.104 243.399 150.168 248.397C150.549 247.63 150.857 247.092 151.1 246.528C154.497 238.375 156.57 229.869 157.462 221.113C158.629 209.648 157.941 198.268 154.989 187.105C149.421 166.051 137.884 149.28 118.935 138.17C102.21 128.364 84.1211 125.839 65.1399 128.981C50.7301 131.368 38.0257 137.448 27.2692 147.293C11.187 162.011 3.22461 180.743 1.13235 202.171C0.135403 212.376 0.843746 222.523 3.18525 232.518C7.90104 252.654 18.1853 269.169 35.3366 280.982C49.0314 290.413 64.3725 294.499 80.9466 294.139C82.993 294.093 85.0393 294.139 87.2562 294.139L87.2496 294.119Z" fill="#E31E25"/>
<path d="M6.37172 34.8667C22.8081 34.8667 39.2445 34.8667 55.6809 34.8667C57.806 34.8667 58.8685 35.8986 58.8685 37.9624C58.8685 59.4885 58.8685 81.0145 58.8685 102.541L58.8685 105.203L86.8419 105.203L86.8419 102.344C86.8419 80.68 86.855 59.0097 86.8091 37.3459C86.8091 35.5422 87.137 34.8011 89.1768 34.8142C101.173 34.9126 113.169 34.8601 125.172 34.8667C125.775 34.8667 126.385 34.9454 127.27 35.011L127.27 114.628L155.27 114.628L155.27 0L3.49239 -6.63441e-06L3.49238 34.8667L6.36516 34.8667L6.37172 34.8667Z" fill="#E31E25"/>
<path d="M93.2185 301.962C121.71 297.332 142.016 282.148 155.167 256.569C130.892 243.182 106.808 229.9 82.3374 216.402C85.9906 245.104 89.5914 273.412 93.2185 301.962Z" fill="#E31E25"/>
</svg>
