<svg width="158" height="791" viewBox="0 0 158 791" fill="none" xmlns="http://www.w3.org/2000/svg">
<path d="M154.387 335.601C138.082 346.987 122.046 358.189 105.983 369.411C105.741 369.201 105.662 369.169 105.636 369.11C105.354 368.559 105.078 368.008 104.809 367.45C101.123 359.77 96.2041 353.06 89.2715 348.01C77.0065 339.083 63.2198 336.801 48.5019 338.978C30.8849 341.582 18.3247 351.158 10.3951 366.991C4.76109 378.24 2.74753 390.347 2.63603 402.75C2.43271 424.558 2.57701 446.366 2.57701 468.174C2.57701 468.784 2.64259 469.387 2.67539 470.076L154.361 470.076L154.361 434.855L112.319 434.855L112.319 432.356C112.319 423.187 112.385 414.018 112.267 404.855C112.24 403.006 112.883 402.009 114.333 401.012C127.162 392.203 139.938 383.31 152.761 374.481C154 373.629 154.617 372.776 154.604 371.149C154.519 359.967 154.558 348.784 154.551 337.601C154.551 337.024 154.453 336.453 154.381 335.594L154.387 335.601ZM67.5946 375.327C76.1276 378.423 80.7909 384.916 82.7848 393.397C83.7424 397.463 84.1097 401.74 84.2081 405.931C84.418 415.021 84.2802 424.125 84.2737 433.222C84.2737 433.694 84.2081 434.173 84.1556 434.862L31.1997 434.862C31.1997 434.193 31.1997 433.537 31.1997 432.881C31.1997 423.436 31.0685 413.992 31.2456 404.547C31.3833 397.293 32.577 390.216 36.7222 383.992C41.0904 377.439 47.4393 374.449 55.1 373.97C59.3239 373.707 63.5412 373.865 67.588 375.334L67.5946 375.327Z" fill="#D9000F"/>
<path d="M105.781 209.751C101.826 201.034 96.7826 193.78 89.4498 188.316C77.1127 179.121 63.1162 177.193 48.3261 179.147C39.7012 180.288 31.8437 183.496 24.9701 188.907C13.6824 197.794 7.85813 209.934 4.7427 223.57C3.11611 230.673 2.7357 237.947 2.72914 245.227C2.70946 266.065 2.72258 286.895 2.72914 307.733C2.72914 308.48 2.78817 309.228 2.82097 309.982L154.31 309.982L154.31 275.273L112.36 275.273C112.268 274.525 112.143 273.994 112.143 273.456C112.13 263.736 112.091 254.009 112.196 244.289C112.209 243.391 112.95 242.184 113.717 241.646C126.743 232.516 139.822 223.452 152.933 214.447C154.054 213.679 154.461 212.905 154.454 211.6C154.415 200.352 154.435 189.097 154.428 177.848C154.428 177.278 154.33 176.707 154.258 175.927C145.961 181.685 137.92 187.234 129.905 192.829C121.883 198.43 113.881 204.071 105.794 209.751L105.781 209.751ZM70.6654 216.788C76.5027 219.759 80.0248 224.711 82.0777 230.778C84.0913 236.74 84.5242 242.938 84.5242 249.182C84.5242 257.171 84.4979 265.159 84.5439 273.148C84.5504 274.539 84.3668 275.313 82.6549 275.313C65.8709 275.26 49.0803 275.28 32.2963 275.273C32.0274 275.273 31.7585 275.214 31.1747 275.142C31.1747 272.427 31.1747 269.869 31.1747 267.311C31.1747 259.322 30.9714 251.327 31.2534 243.351C31.5092 236.065 32.9259 228.955 37.5171 222.967C41.5901 217.654 47.0799 214.939 53.7436 214.211C59.6662 213.568 65.3331 214.073 70.6785 216.788L70.6654 216.788Z" fill="#D9000F"/>
<path d="M121.909 50.3454C122.584 49.9846 123.109 49.6435 123.673 49.4074C133.21 45.459 142.74 41.4713 152.315 37.6278C153.929 36.9785 154.48 36.2112 154.467 34.4796C154.381 24.5496 154.427 14.6129 154.427 4.68289L154.427 -0.000128704C153.07 0.57705 152.119 0.957437 151.187 1.37064C130.134 10.776 109.073 20.1748 88.0259 29.5998C70.809 37.3064 53.6118 45.059 36.4014 52.7787C25.7893 57.5404 15.164 62.2825 4.53868 67.0179C3.29906 67.5689 2.66286 68.2837 2.67598 69.825C2.75468 80.1749 2.74156 90.5247 2.68909 100.875C2.68254 102.213 3.20068 102.862 4.34848 103.367C12.8028 107.079 21.244 110.818 29.6721 114.582C51.244 124.211 72.8029 133.852 94.3748 143.487C109.276 150.144 124.185 156.795 139.086 163.446C144.091 165.682 149.102 167.906 154.172 170.168C154.283 169.795 154.388 169.604 154.388 169.421C154.401 158.166 154.434 146.917 154.349 135.663C154.349 135.02 153.562 134.069 152.919 133.8C143.343 129.773 133.741 125.811 124.113 121.915C122.506 121.266 121.843 120.472 121.85 118.629C121.922 96.5391 121.896 74.4556 121.896 52.3655L121.896 50.3519L121.909 50.3454ZM95.3128 109.65C75.8921 101.596 56.7141 93.6401 36.9261 85.4351C56.701 77.2365 75.8921 69.2741 95.3128 61.2264L95.3128 109.65Z" fill="#D9000F"/>
<path d="M70.7508 496.882C71.1247 500.115 71.4198 502.857 71.7675 505.598C72.83 513.895 73.9515 522.186 74.9419 530.489C75.1059 531.88 75.4666 532.332 76.9161 532.385C80.6415 532.516 84.4063 532.608 88.0727 533.204C101.079 535.329 111.73 541.488 119.181 552.553C126.52 563.447 128.665 575.522 126.625 588.41C124.559 601.429 118.368 611.969 107.375 619.335C95.189 627.494 81.691 629.363 67.4977 626.589C40.1277 621.243 26.5116 596.477 30.683 571.58C31.4832 566.812 33.2016 562.201 34.5462 557.328C25.8951 552.559 16.8964 547.601 7.8321 542.603C7.45169 543.371 7.14342 543.908 6.90074 544.472C3.50328 552.625 1.43069 561.132 0.538692 569.888C-0.628777 581.353 0.059899 592.732 3.01137 603.895C8.57981 624.949 20.1168 641.72 39.0652 652.831C55.7902 662.636 73.8794 665.161 92.8606 662.02C107.27 659.632 119.975 653.552 130.731 643.707C146.813 628.989 154.776 610.257 156.868 588.83C157.865 578.624 157.157 568.478 154.815 558.482C150.099 538.347 139.815 521.831 122.664 510.019C108.969 500.587 93.628 496.501 77.0539 496.862C75.0075 496.908 72.9612 496.862 70.7443 496.862L70.7508 496.882Z" fill="#D9000F"/>
<path d="M151.629 756.133C135.192 756.133 118.756 756.133 102.32 756.133C100.195 756.133 99.132 755.101 99.132 753.038C99.132 731.512 99.132 709.985 99.132 688.459L99.132 685.797L71.1586 685.797L71.1586 688.656C71.1586 710.32 71.1455 731.99 71.1914 753.654C71.1914 755.458 70.8635 756.199 68.8237 756.186C56.8276 756.087 44.8315 756.14 32.8289 756.133C32.2255 756.133 31.6155 756.055 30.7301 755.989L30.7301 676.372L2.73046 676.372L2.73047 791L154.508 791L154.508 756.133L151.635 756.133L151.629 756.133Z" fill="#D9000F"/>
<path d="M64.782 489.037C36.2905 493.668 15.9844 508.852 2.83398 534.431C27.1082 547.818 51.1922 561.099 75.6631 574.597C72.0098 545.896 68.409 517.588 64.782 489.037Z" fill="#D9000F"/>
</svg>
