<svg width="52" height="52" viewBox="0 0 52 52" fill="none" xmlns="http://www.w3.org/2000/svg">
<path d="M51.1332 35.296L39.4059 23.5722C39.6513 22.3748 39.773 21.1553 39.7691 19.9329C39.7682 16.5812 38.924 13.2839 37.3145 10.3456C35.7051 7.40732 33.3823 4.92298 30.5608 3.12221C27.7394 1.32143 24.5104 0.262333 21.1723 0.0428143C17.8343 -0.176705 14.4948 0.450437 11.4627 1.86627C11.0785 2.0421 10.743 2.30922 10.4853 2.64446C10.2276 2.97969 10.0554 3.37289 9.98379 3.78991C9.91244 4.20164 9.94122 4.62453 10.0677 5.02275C10.1941 5.42097 10.4146 5.78277 10.7103 6.07749L21.9965 17.3594L17.3263 22.0385L6.06603 10.7306C5.76939 10.439 5.40716 10.223 5.00983 10.1008C4.6125 9.97869 4.19169 9.95397 3.78284 10.0287C3.36922 10.0979 2.97849 10.2664 2.64411 10.52C2.30973 10.7735 2.04167 11.1044 1.86288 11.4845C0.445029 14.5324 -0.180369 17.8902 0.0448644 21.2453C0.270098 24.6005 1.33864 27.844 3.1511 30.6743C4.96356 33.5046 7.46104 35.8296 10.4112 37.433C13.3614 39.0364 16.6684 39.8662 20.0247 39.8452C21.2447 39.8491 22.4619 39.7272 23.657 39.4813L35.3584 51.2311C35.5996 51.4747 35.8865 51.6681 36.2027 51.8001C36.5189 51.9321 36.858 52 37.2005 52C37.543 52 37.8821 51.9321 38.1983 51.8001C38.5145 51.6681 38.8014 51.4747 39.0426 51.2311C39.2858 50.9894 39.4788 50.7019 39.6106 50.3851C39.7423 50.0684 39.8101 49.7286 39.8101 49.3854C39.8101 49.0422 39.7423 48.7025 39.6106 48.3857C39.4788 48.0689 39.2858 47.7814 39.0426 47.5398L26.3294 34.8021C26.0117 34.4859 25.6177 34.2575 25.1858 34.1391C24.7539 34.0206 24.2987 34.0162 23.8646 34.1263C22.6119 34.4624 21.3215 34.6371 20.0247 34.6462C18.0841 34.6633 16.1593 34.2956 14.3611 33.5642C12.563 32.8328 10.9271 31.7521 9.54762 30.3845C8.16815 29.0169 7.07239 27.3893 6.32346 25.5956C5.57453 23.8018 5.18724 21.8773 5.18389 19.9329C5.18053 19.0621 5.24996 18.1926 5.39145 17.3334L15.562 27.5495C15.8032 27.7931 16.0902 27.9865 16.4064 28.1185C16.7225 28.2505 17.0617 28.3184 17.4042 28.3184C17.7467 28.3184 18.0858 28.2505 18.402 28.1185C18.7181 27.9865 19.0051 27.7931 19.2463 27.5495L27.4969 19.205C27.9646 18.7203 28.226 18.0725 28.226 17.3984C28.226 16.7242 27.9646 16.0764 27.4969 15.5917L17.4042 5.40161C18.2619 5.26127 19.1296 5.19172 19.9987 5.19365C23.8958 5.20054 27.631 6.75646 30.3842 9.51986C33.1375 12.2833 34.6838 16.0283 34.6838 19.9329C34.6748 21.2322 34.5004 22.5251 34.1649 23.7802C34.0551 24.2151 34.0595 24.6712 34.1777 25.1039C34.2959 25.5367 34.5239 25.9314 34.8395 26.2497L47.5527 38.9874C48.0413 39.4768 48.7039 39.7519 49.3948 39.7519C50.0858 39.7519 50.7484 39.4768 51.237 38.9874C51.7255 38.4979 52 37.834 52 37.1417C52 36.4494 51.7255 35.7855 51.237 35.296H51.1332Z" fill="#D9000F"/>
</svg>
