<svg width="52" height="48" viewBox="0 0 52 48" fill="none" xmlns="http://www.w3.org/2000/svg">
<path fill-rule="evenodd" clip-rule="evenodd" d="M44.9091 4.8H7.09091C6.46403 4.8 5.86283 5.05286 5.41957 5.50294C4.9763 5.95303 4.72727 6.56348 4.72727 7.2V40.8C4.72727 41.4365 4.9763 42.047 5.41957 42.4971C5.86283 42.9471 6.46403 43.2 7.09091 43.2H44.9091C45.536 43.2 46.1372 42.9471 46.5804 42.4971C47.0237 42.047 47.2727 41.4365 47.2727 40.8V7.2C47.2727 6.56348 47.0237 5.95303 46.5804 5.50294C46.1372 5.05286 45.536 4.8 44.9091 4.8ZM7.09091 0C5.21028 0 3.40668 0.75857 2.07688 2.10883C0.747076 3.45909 0 5.29044 0 7.2V40.8C0 42.7096 0.747076 44.5409 2.07688 45.8912C3.40668 47.2414 5.21028 48 7.09091 48H44.9091C46.7897 48 48.5933 47.2414 49.9231 45.8912C51.2529 44.5409 52 42.7096 52 40.8V7.2C52 5.29044 51.2529 3.45909 49.9231 2.10883C48.5933 0.75857 46.7897 0 44.9091 0H7.09091ZM11.8182 12H16.5455V16.8H11.8182V12ZM23.6364 12C23.0095 12 22.4083 12.2529 21.965 12.7029C21.5218 13.153 21.2727 13.7635 21.2727 14.4C21.2727 15.0365 21.5218 15.647 21.965 16.0971C22.4083 16.5471 23.0095 16.8 23.6364 16.8H37.8182C38.4451 16.8 39.0463 16.5471 39.4895 16.0971C39.9328 15.647 40.1818 15.0365 40.1818 14.4C40.1818 13.7635 39.9328 13.153 39.4895 12.7029C39.0463 12.2529 38.4451 12 37.8182 12H23.6364ZM16.5455 21.6H11.8182V26.4H16.5455V21.6ZM21.2727 24C21.2727 23.3635 21.5218 22.753 21.965 22.3029C22.4083 21.8529 23.0095 21.6 23.6364 21.6H37.8182C38.4451 21.6 39.0463 21.8529 39.4895 22.3029C39.9328 22.753 40.1818 23.3635 40.1818 24C40.1818 24.6365 39.9328 25.247 39.4895 25.6971C39.0463 26.1471 38.4451 26.4 37.8182 26.4H23.6364C23.0095 26.4 22.4083 26.1471 21.965 25.6971C21.5218 25.247 21.2727 24.6365 21.2727 24ZM16.5455 31.2H11.8182V36H16.5455V31.2ZM21.2727 33.6C21.2727 32.9635 21.5218 32.353 21.965 31.9029C22.4083 31.4529 23.0095 31.2 23.6364 31.2H37.8182C38.4451 31.2 39.0463 31.4529 39.4895 31.9029C39.9328 32.353 40.1818 32.9635 40.1818 33.6C40.1818 34.2365 39.9328 34.847 39.4895 35.2971C39.0463 35.7471 38.4451 36 37.8182 36H23.6364C23.0095 36 22.4083 35.7471 21.965 35.2971C21.5218 34.847 21.2727 34.2365 21.2727 33.6Z" fill="#D9000F"/>
</svg>
