<svg width="59" height="62" viewBox="0 0 59 62" fill="none" xmlns="http://www.w3.org/2000/svg">
<path d="M49.0399 35.3402C45.1399 39.2402 39.8199 40.8802 34.7499 40.2402C32.7399 40.0002 30.7699 39.3902 28.9399 38.4402C27.4199 37.6502 25.9799 36.6202 24.7099 35.3302C24.3999 35.0202 24.1099 34.7102 23.8399 34.3802C22.9499 33.3702 22.2199 32.2702 21.6199 31.1102C18.2299 24.6402 19.2599 16.4402 24.7099 10.9902C31.4299 4.2702 42.3299 4.2702 49.0499 10.9902C55.7699 17.7102 55.7699 28.6102 49.0499 35.3302L49.0399 35.3402Z" stroke="#D9000F" stroke-width="4" stroke-miterlimit="10"/>
<path d="M22.4302 30.3003L21.6102 31.1203L12.9102 39.8203" stroke="#D9000F" stroke-width="4" stroke-miterlimit="10"/>
<path d="M29.7497 37.6201L28.9297 38.4501" stroke="#D9000F" stroke-width="4" stroke-miterlimit="10"/>
<path d="M12.9102 54.4103C13.0502 54.3103 13.1802 54.1903 13.3202 54.0503L23.8202 43.5503" stroke="#D9000F" stroke-width="4" stroke-miterlimit="10"/>
<path d="M6 46.73C4.99 47.74 4.48 49.06 4.48 50.38C4.48 51.7 4.99 53.04 6 54.05C7.88 55.93 10.88 56.06 12.91 54.41V59.54H2V2H12.91V39.82L6 46.73Z" stroke="#D9000F" stroke-width="4" stroke-miterlimit="10"/>
<path d="M34.7401 40.2402V59.5402H23.8301V43.5502L28.9301 38.4502C30.7601 39.4002 32.7301 40.0102 34.7401 40.2502V40.2402Z" stroke="#D9000F" stroke-width="4" stroke-miterlimit="10"/>
<path d="M56.5604 40.6201H45.6504V59.5401H56.5604V40.6201Z" stroke="#D9000F" stroke-width="4" stroke-miterlimit="10"/>
</svg>
