<svg width="52" height="52" viewBox="0 0 52 52" fill="none" xmlns="http://www.w3.org/2000/svg">
<path d="M49.9999 25.7784C50.0036 25.2658 49.9004 24.7582 49.697 24.2877C49.4936 23.8173 49.1943 23.3944 48.8184 23.0461L26 2L3.18162 23.0461C2.80583 23.3946 2.50671 23.8175 2.3033 24.2879C2.09988 24.7583 1.99662 25.2659 2.00008 25.7784V46.3075C2.00008 47.2868 2.38909 48.2259 3.08153 48.9184C3.77397 49.6108 4.71312 49.9998 5.69238 49.9998H46.3076C47.2869 49.9998 48.226 49.6108 48.9185 48.9184C49.6109 48.2259 49.9999 47.2868 49.9999 46.3075V25.7784Z" stroke="#D9000F" stroke-width="4" stroke-linecap="round" stroke-linejoin="round"/>
<path d="M25.9994 49.077C25.9994 50.0001 26.9225 50.0001 26.9225 50.0001H37.9957C38.9187 50.0001 38.9187 49.077 38.9187 49.077V38.0038C38.9187 37.0807 37.9957 37.0807 37.9957 37.0807H26.9225C25.9994 37.0807 25.9994 38.0038 25.9994 38.0038M25.9994 49.077V38.0038M25.9994 49.077C25.9994 49.077 25.9994 50.0001 25.0763 50.0001H14.0032C14.0032 50.0001 13.0801 50.0001 13.0801 49.077V38.0038C13.0801 38.0038 13.0801 37.0807 14.0032 37.0807H25.0763C25.0763 37.0807 25.9994 37.0807 25.9994 38.0038M20.461 24.1577H31.5342C31.5342 24.1577 32.4572 24.1577 32.4572 25.0808V36.154C32.4572 36.154 32.4572 37.0771 31.5342 37.0771H20.461C20.461 37.0771 19.5379 37.0771 19.5379 36.154V25.0808C19.5379 25.0808 19.5379 24.1577 20.461 24.1577Z" stroke="#D9000F" stroke-width="4" stroke-linecap="round" stroke-linejoin="round"/>
</svg>
