<svg width="71" height="63" viewBox="0 0 71 63" fill="none" xmlns="http://www.w3.org/2000/svg">
<path d="M46.018 38.9888H13.0055C6.92819 38.9888 2 43.917 2 49.9943C2 56.0716 6.92819 60.9998 13.0055 60.9998H57.0235C63.1008 60.9998 68.029 56.0716 68.029 49.9943C68.029 43.917 63.1008 38.9888 57.0235 38.9888H46.018Z" stroke="#D9000F" stroke-width="4" stroke-miterlimit="10" stroke-linejoin="round"/>
<path d="M13.0061 53.0903C11.3002 53.0903 9.91016 51.7003 9.91016 49.9944C9.91016 48.2884 11.3002 46.8984 13.0061 46.8984C14.712 46.8984 16.102 48.2884 16.102 49.9944C16.102 51.7003 14.712 53.0903 13.0061 53.0903Z" stroke="#D9000F" stroke-width="4" stroke-miterlimit="10" stroke-linejoin="round"/>
<path d="M35.0119 53.0903C33.306 53.0903 31.916 51.7003 31.916 49.9944C31.916 48.2884 33.306 46.8984 35.0119 46.8984C36.7178 46.8984 38.1078 48.2884 38.1078 49.9944C38.1078 51.7003 36.7178 53.0903 35.0119 53.0903Z" stroke="#D9000F" stroke-width="4" stroke-miterlimit="10" stroke-linejoin="round"/>
<path d="M57.0236 53.0903C55.3177 53.0903 53.9277 51.7003 53.9277 49.9944C53.9277 48.2884 55.3177 46.8984 57.0236 46.8984C58.7296 46.8984 60.1196 48.2884 60.1196 49.9944C60.1196 51.7003 58.7296 53.0903 57.0236 53.0903Z" stroke="#D9000F" stroke-width="4" stroke-miterlimit="10" stroke-linejoin="round"/>
<path d="M39.4456 28.3745H30.2961C29.7235 28.3745 29.2141 28.7536 29.0522 29.3025L28.061 32.659C27.8991 33.2118 27.3936 33.587 26.8171 33.587H19.6894C18.7851 33.587 18.1572 32.6827 18.4771 31.8337L29.376 2.84111C29.5655 2.33565 30.0512 2 30.5883 2H39.4416C39.9826 2 40.4644 2.33565 40.6539 2.84111L51.5489 31.8376C51.8687 32.6866 51.2408 33.5909 50.3366 33.5909H42.9482C42.3756 33.5909 41.8741 33.2158 41.7083 32.6709L40.6855 29.2985C40.5197 28.7536 40.0142 28.3784 39.4456 28.3784V28.3745ZM37.866 19.8686L36.1404 14.2454C35.7652 13.0213 34.0317 13.0252 33.6605 14.2454L31.9506 19.8686C31.6979 20.7018 32.3218 21.5429 33.1906 21.5429H36.6261C37.4988 21.5429 38.1227 20.6979 37.866 19.8647V19.8686Z" stroke="#D9000F" stroke-width="4" stroke-miterlimit="10" stroke-linejoin="round"/>
</svg>
